 <svg xmlns="http://www.w3.org/2000/svg" width="246px" height="180px" viewBox="0 0 164 120">
                        <g stroke="none" stroke-width="1" fill="none" fill-rule="evenodd">
                            <path
                                d="M162,52.5487256 L160.632866,52.5487256 L160.632866,10.0169561 L157,10.0169561 L157,8.54872564 L161.316433,8.54872564 C161.694432,8.54872564 162,8.87761899 162,9.28284089 L162,52.5487256"
                                fill="#E1E1E1"></path>
                            <polygon fill="#E1E1E1"
                                points="144 62.5487256 152 62.5487256 152 61.5487256 144 61.5487256"></polygon>
                            <path
                                d="M78.4341116,14.5487256 L77,14.5487256 L77,8.30448139 C77,7.88731423 77.3229125,7.54872564 77.7170558,7.54872564 L83,7.54872564 L83,9.06023715 L78.4341116,9.06023715 L78.4341116,14.5487256"
                                fill="#E1E1E1"></path>
                            <path
                                d="M155.256914,53.5487256 L143.077196,53.5487256 L143.077196,52.0553721 L154.513828,52.0553721 L154.513828,4.04207914 L125.051212,4.04207914 C121.850038,4.04207914 119.241856,6.66039264 119.241856,9.87876723 L119.241856,12.9928049 C119.241856,13.4049605 118.909681,13.7394816 118.49877,13.7394816 C118.090319,13.7394816 117.755684,13.4049605 117.755684,12.9928049 L117.755684,9.87876723 C117.755684,6.66039264 115.149962,4.04207914 111.948788,4.04207914 L82.4861717,4.04207914 L82.4861717,13.9286232 L81,13.9286232 L81,3.29540239 C81,2.88299947 81.3346347,2.54872564 81.7430859,2.54872564 L111.948788,2.54872564 C114.820249,2.54872564 117.310324,4.22627589 118.49877,6.65693123 C119.689676,4.22627589 122.179751,2.54872564 125.051212,2.54872564 L155.256914,2.54872564 C155.665365,2.54872564 156,2.88299947 156,3.29540239 L156,52.8020489 C156,53.2144518 155.665365,53.5487256 155.256914,53.5487256"
                                fill="#E1E1E1"></path>
                            <polygon fill="#E1E1E1" points="89 11.5487256 112 11.5487256 112 10.5487256 89 10.5487256">
                            </polygon>
                            <polygon fill="#E1E1E1" points="89 27.5487256 112 27.5487256 112 26.5487256 89 26.5487256">
                            </polygon>
                            <polygon fill="#E1E1E1"
                                points="143 34.5487256 150 34.5487256 150 33.5487256 143 33.5487256"></polygon>
                            <polygon fill="#E1E1E1"
                                points="143 40.5487256 150 40.5487256 150 39.5487256 143 39.5487256"></polygon>
                            <polygon fill="#E1E1E1"
                                points="144 45.5487256 150 45.5487256 150 44.5487256 144 44.5487256"></polygon>
                            <path
                                d="M127.476021,22.0869638 L148.523979,22.0869638 L148.523979,12.0104875 L127.476021,12.0104875 L127.476021,22.0869638 Z M149.26199,23.5487256 L126.73801,23.5487256 C126.329905,23.5487256 126,23.2215233 126,22.8178447 L126,11.2796066 C126,10.875928 126.329905,10.5487256 126.73801,10.5487256 L149.26199,10.5487256 C149.670095,10.5487256 150,10.875928 150,11.2796066 L150,22.8178447 C150,23.2215233 149.670095,23.5487256 149.26199,23.5487256 L149.26199,23.5487256 Z"
                                fill="#E1E1E1"></path>
                            <path
                                d="M43,27.7193387 L43.4792747,28.5454237 C44.5925899,30.4610478 47.0563613,31.1174505 48.9859412,30.0115385 C50.9130249,28.9053784 51.5720276,26.4556518 50.4587124,24.5397796 L49.8845813,23.5487256 L43,27.7193387"
                                fill="#FFFFFF"></path>
                            <path
                                d="M43.4847762,27.7733459 L43.8513142,28.400744 C44.3384552,29.2305135 45.1235561,29.8248048 46.0623665,30.0726398 C47.0011769,30.3202418 47.9825531,30.1931767 48.8244083,29.7142932 C50.5625082,28.7248181 51.1584282,26.5260105 50.1557692,24.8121482 L49.7017349,24.0369351 L43.4847762,27.7733459 Z M47.010636,30.5487256 C46.663016,30.5487256 46.3130313,30.5037283 45.9701408,30.4125679 C44.9391047,30.1402524 44.0759666,29.4881408 43.5415304,28.5767699 L43,27.6516433 L49.8270673,23.5487256 L50.465553,24.6361224 C51.5675319,26.5180835 50.9101282,28.9330182 49.0017654,30.0190161 C48.3869273,30.3696689 47.7035112,30.5487256 47.010636,30.5487256 L47.010636,30.5487256 Z"
                                fill="#E1E1E1"></path>
                            <path
                                d="M7,33.5487256 C7,35.2055493 5.65631929,36.5487256 3.99866962,36.5487256 C2.34368071,36.5487256 1,35.2055493 1,33.5487256 C1,31.891902 2.34368071,30.5487256 3.99866962,30.5487256 C5.65631929,30.5487256 7,31.891902 7,33.5487256"
                                fill="#FFFFFF"></path>
                            <path
                                d="M3.99875364,30.9250036 C2.5529705,30.9250036 1.37640216,32.1022125 1.37640216,33.5487256 C1.37640216,34.9952388 2.5529705,36.1721983 3.99875364,36.1721983 C5.4470295,36.1721983 6.62359784,34.9952388 6.62359784,33.5487256 C6.62359784,32.1022125 5.4470295,30.9250036 3.99875364,30.9250036 Z M3.99875364,36.5487256 C2.34607395,36.5487256 1,35.2029522 1,33.5487256 C1,31.8944991 2.34607395,30.5487256 3.99875364,30.5487256 C5.65392605,30.5487256 7,31.8944991 7,33.5487256 C7,35.2029522 5.65392605,36.5487256 3.99875364,36.5487256 L3.99875364,36.5487256 Z"
                                fill="#E1E1E1"></path>
                            <path
                                d="M34.4879399,17.5487256 L29.0623695,5.68694424 C28.9090764,5.35079876 29.0472915,4.95854945 29.3790077,4.77495863 L36.9104734,0.645000766 C37.2447026,0.462126165 37.6693998,0.546640014 37.900596,0.840289831 L46,11.2338221 L44.7811942,12.0920913 L37.0838705,2.21543043 L30.7259766,5.70246232 L35.8801427,16.9743179 L34.4879399,17.5487256"
                                fill="#E1E1E1"></path>
                            <path
                                d="M46.6395768,12.0062472 C44.2015882,12.0062472 41.7709949,12.6454663 39.5524007,13.8995509 C36.1579515,15.8167259 33.7889858,18.8664591 32.8867575,22.4871734 C32.1003891,25.6338384 32.4873296,28.9917278 33.9393572,31.815287 L58.2206388,18.1037847 C56.4457634,15.4615506 53.6651253,13.4551599 50.4876053,12.5470878 C49.2230065,12.1854022 47.9288266,12.0062472 46.6395768,12.0062472 Z M33.65094,33.5487256 C33.392104,33.5487256 33.1431284,33.4182777 33.0050825,33.1846288 C31.0749055,29.9159552 30.5054664,25.8908763 31.439741,22.1418842 C32.4405736,18.1315139 35.0560497,14.7560225 38.8079391,12.6379915 C42.5573634,10.5199604 46.8540409,9.99093488 50.9066731,11.1488111 C54.6930739,12.2312157 57.9716632,14.7266054 59.8993751,17.9955201 C60.1064439,18.3441851 59.9831887,18.7892995 59.6282136,18.9903967 L34.0207057,33.4513116 C33.9048458,33.5173795 33.7766603,33.5487256 33.65094,33.5487256 L33.65094,33.5487256 Z"
                                fill="#E1E1E1"></path>
                            <path
                                d="M34.1894954,13.5487256 L33,12.6431662 C34.2203913,11.3342572 35.7059732,10.2198119 37.407827,9.33100058 C39.0916581,8.45358723 40.8784758,7.8541455 42.7193615,7.54872564 L43,8.93044232 C41.3341916,9.20701826 39.7147271,9.75086567 38.1853759,10.5480278 C36.6380021,11.3551923 35.2940268,12.3647294 34.1894954,13.5487256"
                                fill="#E1E1E1"></path>
                            <path
                                d="M47.4303779,30.5487256 C47.0339128,30.5487256 46.6326711,30.4949934 46.2385943,30.3870404 C45.0587524,30.0631814 44.0699781,29.2889485 43.458562,28.2057551 L43,27.3924442 L44.2491039,26.6550911 L44.7076659,27.4681578 C45.1280144,28.2099071 45.8039157,28.7401468 46.611176,28.9621587 C47.4208245,29.1829494 48.2662983,29.0698674 48.9899665,28.6417191 C50.4874581,27.7578235 51.0033404,25.7931769 50.1387599,24.2622961 L49.5870524,23.286323 L50.8361563,22.5487256 L51.3878637,23.5244545 C52.6489093,25.7599606 51.8989693,28.6285302 49.7136347,29.9195698 C49.0066849,30.3357505 48.2233081,30.5487256 47.4303779,30.5487256"
                                fill="#E1E1E1"></path>
                            <polyline fill="#E1E1E1"
                                points="15.7234118 56.5487256 3 36.350757 4.27658815 35.5487256 17 55.7466943 15.7234118 56.5487256">
                            </polyline>
                            <polyline fill="#E1E1E1"
                                points="5.95629056 31.5487256 5 30.401156 31.0437094 7.54872564 32 8.69604539 5.95629056 31.5487256">
                            </polyline>
                            <path
                                d="M3.50120234,31.0013471 C2.37100653,31.0013471 1.45242185,31.9198175 1.45242185,33.0487256 C1.45242185,34.1773933 2.37100653,35.0961042 3.50120234,35.0961042 C4.62899347,35.0961042 5.54757815,34.1773933 5.54757815,33.0487256 C5.54757815,31.9198175 4.62899347,31.0013471 3.50120234,31.0013471 Z M3.50120234,36.5487256 C1.57025077,36.5487256 0,34.9784996 0,33.0487256 C0,31.1187112 1.57025077,29.5487256 3.50120234,29.5487256 C5.42974923,29.5487256 7,31.1187112 7,33.0487256 C7,34.9784996 5.42974923,36.5487256 3.50120234,36.5487256 L3.50120234,36.5487256 Z"
                                fill="#E1E1E1"></path>
                            <path
                                d="M147.44485,95.5487256 C147.307537,95.5487256 147.172634,95.5093286 147.054594,95.4329814 L144,93.4538285 L144.780511,92.2075593 L147.567708,94.0122394 L153.640761,92.3734675 L157.866122,79.4957598 L155.777531,78.7239685 C155.526997,78.6312263 155.346323,78.4068342 155.307779,78.1391298 C155.269235,77.870936 155.375231,77.6029869 155.589631,77.4397704 L159.643954,74.3300925 L162.31311,52.1649505 C159.000754,55.3717753 150.735524,64.3349789 146.628203,77.3837335 L148.615617,82.2792494 C148.72643,82.5486668 148.668614,82.8579706 148.471078,83.0693934 C148.273541,83.281061 147.974827,83.3549611 147.702611,83.2583037 L144.132494,81.9856066 L144.614291,80.5912924 L146.649884,81.3173244 L145.180403,77.6986655 C145.11536,77.5388749 145.108133,77.3607315 145.158722,77.1955574 C150.43681,60.1422482 162.688912,49.8177652 162.81177,49.7157243 C163.043033,49.5243671 163.363428,49.4950028 163.623598,49.640356 C163.883769,49.7859539 164.030717,50.0778839 163.994582,50.3773996 L161.050801,74.8207208 C161.026712,75.0194191 160.923125,75.2000095 160.766541,75.320403 L157.533682,77.7997276 L159.029662,78.352755 C159.400646,78.4897883 159.595774,78.901133 159.470507,79.2811558 L154.898252,93.2191589 C154.821164,93.4552967 154.630854,93.6356424 154.394774,93.6995097 L147.632751,95.5240107 C147.570117,95.5404058 147.507483,95.5487256 147.44485,95.5487256"
                                fill="#E1E1E1"></path>
                            <polyline fill="#E1E1E1"
                                points="140.391753 112.548726 139 112.036662 157.608247 60.5487256 159 61.0615325 140.391753 112.548726">
                            </polyline>
                            <path
                                d="M138.43337,105.193615 L148.56663,105.193615 L148.56663,102.903836 L138.43337,102.903836 L138.43337,105.193615 Z M149.283315,106.548726 L137.716685,106.548726 C137.320372,106.548726 137,106.245172 137,105.870946 L137,102.226057 C137,101.852055 137.320372,101.548726 137.716685,101.548726 L149.283315,101.548726 C149.677254,101.548726 150,101.852055 150,102.226057 L150,105.870946 C150,106.245172 149.677254,106.548726 149.283315,106.548726 L149.283315,106.548726 Z"
                                fill="#E1E1E1"></path>
                            <path
                                d="M132.458796,118.043492 L154.541204,118.043492 L154.541204,106.053959 L132.458796,106.053959 L132.458796,118.043492 Z M155.270602,119.548726 L131.729398,119.548726 C131.326055,119.548726 131,119.211793 131,118.796109 L131,105.301093 C131,104.885409 131.326055,104.548726 131.729398,104.548726 L155.270602,104.548726 C155.673945,104.548726 156,104.885409 156,105.301093 L156,118.796109 C156,119.211793 155.673945,119.548726 155.270602,119.548726 L155.270602,119.548726 Z"
                                fill="#E1E1E1"></path>
                            <path
                                d="M132,113.548726 L132,112.175452 C137.523984,112.175452 141.25634,111.474719 144.868928,110.796949 C148.28842,110.155331 151.522151,109.548726 156,109.548726 L156,110.921999 C151.668805,110.921999 148.505958,111.514962 145.159792,112.143167 C141.478766,112.834123 137.670639,113.548726 132,113.548726"
                                fill="#E1E1E1"></path>
                            <path
                                d="M23.7511312,81.6571936 C23.7511312,84.1792363 19.864628,84.1792363 19.864628,81.6571936 C19.864628,79.1111223 23.7511312,79.1111223 23.7511312,81.6571936 Z M16,71.6889255 C16.0243058,68.1338929 19.0625354,66.5487256 22.4872277,66.5487256 C25.9143506,66.5487256 29.0716787,68.0139902 28.9987612,71.6168397 C28.9987612,75.0995461 25.7685156,75.4599753 24.3587771,76.3968507 C23.7025195,76.8291254 23.4351553,77.5019264 23.4351553,78.6305501 L23.4351553,78.7506932 L20.2292155,78.7506932 L20.2292155,78.6070021 C20.2535213,75.3160439 21.6122176,74.5713973 22.9004269,73.8988366 C24.1886362,73.2262758 25.6712922,73.034047 25.6712922,71.5928111 C25.6712922,69.7435694 23.9455779,69.3110544 22.438616,69.3110544 C20.8854731,69.3110544 19.2812879,70.175844 19.2569821,71.6889255 L16,71.6889255 L16,71.6889255 Z"
                                fill="#E1E1E1"></path>
                            <path
                                d="M22.3044027,94.5487256 C11.1091838,94.5487256 2,85.3527797 2,74.0488498 C2,62.74492 11.1091838,53.5487256 22.3044027,53.5487256 C30.4714268,53.5487256 37.8094487,58.4534454 41,66.044373 L39.6322695,66.6302966 C36.6754131,59.5949906 29.8736596,55.0489286 22.3044027,55.0489286 C11.9283462,55.0489286 3.485808,63.572267 3.485808,74.0488498 C3.485808,84.5254326 11.9283462,93.0485227 22.3044027,93.0485227 C28.6067869,93.0485227 34.9682099,89.4621932 38.5105336,83.9114423 L39.7577268,84.7238866 C35.9497288,90.6924093 29.0987763,94.5487256 22.3044027,94.5487256"
                                fill="#E1E1E1"></path>
                            <path
                                d="M22.8344094,90.5487256 C14.1031496,90.5487256 7,83.3712339 7,74.5487256 C7,65.7262174 14.1031496,58.5487256 22.8344094,58.5487256 C28.8147244,58.5487256 34.8414173,62.5683973 37.4898425,68.3233653 L36.1546457,68.9518706 C33.7381102,63.7040482 28.2606299,60.0385892 22.8344094,60.0385892 C14.9159843,60.0385892 8.47433071,66.5476156 8.47433071,74.5487256 C8.47433071,82.5498356 14.9159843,89.0588621 22.8344094,89.0588621 C29.1247244,89.0588621 34.7803937,84.8120109 36.5866929,78.7316903 L38,79.1601494 C36.005748,85.8657687 29.7691339,90.5487256 22.8344094,90.5487256"
                                fill="#E1E1E1"></path>
                            <path
                                d="M20.0836366,98.9987158 L18.4624115,113.54519 C18.3338563,114.702542 18.7028576,115.864454 19.4718087,116.732768 C20.2407598,117.600601 21.345383,118.098735 22.5,118.098735 C23.654617,118.098735 24.7592402,117.600601 25.5281913,116.732768 C26.2971424,115.864454 26.6661437,114.702542 26.5375885,113.54519 L24.9163634,98.9987158 L20.0836366,98.9987158 Z M22.5,119.548726 C20.9359106,119.548726 19.4408602,118.874384 18.4005146,117.698788 C17.3577883,116.523191 16.8602317,114.950288 17.0340194,113.383147 L18.7266641,98.1925789 C18.7671352,97.8257602 19.0766202,97.5487256 19.4408602,97.5487256 L25.5591398,97.5487256 C25.9233798,97.5487256 26.2328648,97.8257602 26.2733359,98.1925789 L27.9659806,113.383147 C28.1397683,114.950288 27.6422117,116.523191 26.5994854,117.698788 C25.5591398,118.874384 24.0640894,119.548726 22.5,119.548726 L22.5,119.548726 Z"
                                fill="#E1E1E1"></path>
                            <polygon fill="#E1E1E1" points="19 102.548726 27 102.548726 27 101.548726 19 101.548726">
                            </polygon>
                            <polygon fill="#E1E1E1" points="20 97.5487256 21 97.5487256 21 93.5487256 20 93.5487256">
                            </polygon>
                            <polygon fill="#E1E1E1" points="24 97.5487256 25 97.5487256 25 93.5487256 24 93.5487256">
                            </polygon>
                            <path
                                d="M56.8914325,26.9044964 L55,25.797325 L55.7454041,24.5487256 L57.6392647,25.6558971 L56.8914325,26.9044964 Z M60.6791537,29.1193195 L58.7852931,28.0121481 L59.5331252,26.7635488 L61.4245578,27.8707202 L60.6791537,29.1193195 Z M64.4668748,31.3339025 L62.5730142,30.2267311 L63.3184183,28.9783719 L65.2122789,30.0855433 L64.4668748,31.3339025 Z M68.2521679,33.5487256 L66.3607353,32.4415542 L67.1061394,31.1929549 L69,32.3003664 L68.2521679,33.5487256 L68.2521679,33.5487256 Z"
                                fill="#E1E1E1"></path>
                            <path
                                d="M51.1006307,34.161844 L50,32.2641507 L51.2980532,31.5487256 L52.3986838,33.4464189 L51.1006307,34.161844 Z M53.301892,37.9574712 L52.2012613,36.0595373 L53.4968467,35.3443529 L54.5974774,37.2418055 L53.301892,37.9574712 Z M55.5031533,41.7528578 L54.4025226,39.8551645 L55.698108,39.1397394 L56.7987387,41.0374327 L55.5031533,41.7528578 Z M57.7044146,45.5487256 L56.6037839,43.6505511 L57.8993693,42.935126 L59,44.8333006 L57.7044146,45.5487256 L57.7044146,45.5487256 Z"
                                fill="#E1E1E1"></path>
                            <path
                                d="M42.8575499,34.8438277 L41.1396011,34.7621131 L41.2820513,32.5487256 L43,32.6304402 L42.8575499,34.8438277 Z M42.5726496,39.2698687 L40.8547009,39.1883988 L40.997151,36.9752559 L42.7150997,37.0567258 L42.5726496,39.2698687 Z M42.2877493,43.6961543 L40.5698006,43.6146844 L40.7122507,41.401297 L42.4301994,41.4830115 L42.2877493,43.6961543 Z M42.002849,48.12244 L40.2849003,48.0409701 L40.4273504,45.8280719 L42.1452991,45.9095418 L42.002849,48.12244 Z M41.7179487,52.5487256 L40,52.4672558 L40.1424501,50.2543576 L41.8603989,50.3358275 L41.7179487,52.5487256 L41.7179487,52.5487256 Z"
                                fill="#E1E1E1"></path>
                            <polygon fill="#BFC5D0"
                                points="143 57.5487256 151 57.5487256 151 56.5487256 143 56.5487256"></polygon>
                            <path
                                d="M95.406799,49.2862924 L133.036451,49.2862924 L133.036451,27.3020214 L95.406799,27.3020214 L95.406799,49.2862924 Z M86.0662969,13.5487256 L86,84.5487256 C86.1915245,84.5445449 86.3781381,84.5379048 86.5745735,84.5379048 C97.194361,84.5379048 144,84.5379048 144,84.5379048 L144,13.5487256 L86.0662969,13.5487256 L86.0662969,13.5487256 Z"
                                fill="#EEEEEE"></path>
                            <path
                                d="M46.8359913,66.5487256 L45,66.5487256 L45,49.4500986 C45,48.9522542 45.4128552,48.5487256 45.9179956,48.5487256 L75,48.5487256 L75,50.3514715 L46.8359913,50.3514715 L46.8359913,66.5487256"
                                fill="#E1E1E1"></path>
                            <path
                                d="M40.7619048,79.5487256 L36.9326425,79.5487256 C36.4169751,79.5487256 36,79.1412324 36,78.6384966 L36,67.4589547 C36,66.9562189 36.4169751,66.5487256 36.9326425,66.5487256 L76,66.5487256 L76,68.3691838 L37.8628177,68.3691838 L37.8628177,77.7282675 L40.7619048,77.7282675 L40.7619048,79.5487256"
                                fill="#E1E1E1"></path>
                            <path
                                d="M40.8504902,95.5487256 L39,95.5487256 L39,78.4886377 C39,77.9695074 39.4142157,77.5487256 39.9240196,77.5487256 L76,77.5487256 L76,79.4285497 L40.8504902,79.4285497 L40.8504902,95.5487256"
                                fill="#E1E1E1"></path>
                            <path
                                d="M75,90.5487256 L64.9279179,90.5487256 C64.4148628,90.5487256 64,90.1536322 64,89.6664826 L64,84.430735 C64,83.9433518 64.4148628,83.5487256 64.9279179,83.5487256 L75,83.5487256 L75,85.3127443 L65.8533809,85.3127443 L65.8533809,88.7844733 L75,88.7844733 L75,90.5487256"
                                fill="#E1E1E1"></path>
                            <path
                                d="M47.8919145,94.6629377 L59.1080855,94.6629377 L59.1080855,79.4345135 L47.8919145,79.4345135 L47.8919145,94.6629377 Z M60.0527898,96.5487256 L46.9472102,96.5487256 C46.4234881,96.5487256 46,96.1266089 46,95.6058317 L46,78.4916196 C46,77.9708424 46.4234881,77.5487256 46.9472102,77.5487256 L60.0527898,77.5487256 C60.5765119,77.5487256 61,77.9708424 61,78.4916196 L61,95.6058317 C61,96.1266089 60.5765119,96.5487256 60.0527898,96.5487256 L60.0527898,96.5487256 Z"
                                fill="#E1E1E1"></path>
                            <polygon fill="#E1E1E1" points="57 78.5487256 59 78.5487256 59 67.5487256 57 67.5487256">
                            </polygon>
                            <path
                                d="M75,62.5487256 L53.9084337,62.5487256 C53.4072289,62.5487256 53,62.1312928 53,61.6165413 L53,54.481157 C53,53.9661585 53.4072289,53.5487256 53.9084337,53.5487256 L75,53.5487256 L75,55.4135883 L54.8192771,55.4135883 L54.8192771,60.68411 L75,60.68411 L75,62.5487256"
                                fill="#E1E1E1"></path>
                            <polygon fill="#E1E1E1"
                                points="112 110.548726 114 110.548726 114 98.5487256 112 98.5487256"></polygon>
                            <polygon fill="#E1E1E1"
                                points="106 110.548726 108 110.548726 108 98.5487256 106 98.5487256"></polygon>
                            <polygon fill="#E1E1E1" points="55 110.548726 57 110.548726 57 95.5487256 55 95.5487256">
                            </polygon>
                            <polygon fill="#E1E1E1" points="49 110.548726 51 110.548726 51 95.5487256 49 95.5487256">
                            </polygon>
                            <path
                                d="M132.075326,112.548726 L36.9271265,112.548726 C36.414509,112.548726 36,112.132076 36,111.618044 L36,95.4794073 C36,94.9653752 36.414509,94.5487256 36.9271265,94.5487256 L76.3667948,94.5487256 L76.3667948,96.410089 L37.8518003,96.410089 L37.8518003,110.687362 L131.1482,110.687362 L131.1482,98.7026476 L133,98.7026476 L133,111.618044 C133,112.132076 132.585491,112.548726 132.075326,112.548726"
                                fill="#E1E1E1"></path>
                            <polyline fill="#EEEEEE"
                                points="100 104.548726 94.863988 100.963048 90 104.548726 90 88.5487256 100 88.5487256 100 104.548726">
                            </polyline>
                            <path
                                d="M74.2856741,92.5487256 L74,19.7421159 C74,15.7740349 77.233535,12.5487256 81.2083451,12.5487256 L143.071559,12.5487256 C143.583802,12.5487256 144,12.9638328 144,13.4759621 L144,84.5754743 L142.140656,84.5754743 L142.140656,14.4031986 L81.2083451,14.4031986 C78.2580214,14.4031986 75.8593442,16.7965741 75.8593442,19.7384315 L76.1450183,92.5413569 L74.2856741,92.5487256"
                                fill="#a62005" class="primary-fill-color"></path>
                            <polygon fill="#a62005" class="primary-fill-color"
                                points="85 84.5487256 87 84.5487256 87 13.5487256 85 13.5487256"></polygon>
                            <path
                                d="M89.4641975,98.5487256 L81.762963,98.5487256 C77.4814815,98.5487256 74,95.1842798 74,91.0489641 C74,86.91341 77.4814815,83.5487256 81.762963,83.5487256 L143.069136,83.5487256 C143.582716,83.5487256 144,83.9520489 144,84.4493458 L144,88.5104843 C144,89.0077811 143.582716,89.4111044 143.069136,89.4111044 L98.9234568,89.4111044 L98.9234568,87.6101026 L142.135802,87.6101026 L142.135802,85.3497274 L81.762963,85.3497274 C78.5111111,85.3497274 75.8641975,87.9063342 75.8641975,91.0489641 C75.8641975,94.1915941 78.5111111,96.7479624 81.762963,96.7479624 L89.4641975,96.7479624 L89.4641975,98.5487256"
                                fill="#a62005" class="primary-fill-color"></path>
                            <polyline fill="#a62005" class="primary-fill-color"
                                points="89.9785612 89.5487256 85 89.4804217 85.0214388 87.5487256 90 87.6172854 89.9785612 89.5487256">
                            </polyline>
                            <path
                                d="M143.063638,99.5487256 L99,99.5487256 L99,97.7055389 L142.124793,97.7055389 L142.124793,95.3919124 L99,95.3919124 L99,93.5487256 L143.063638,93.5487256 C143.580252,93.5487256 144,93.9610624 144,94.4700749 L144,98.6271323 C144,99.1361448 143.580252,99.5487256 143.063638,99.5487256"
                                fill="#a62005" class="primary-fill-color"></path>
                            <polygon fill="#a62005" class="primary-fill-color"
                                points="85 95.5487256 90 95.5487256 90 93.5487256 85 93.5487256"></polygon>
                            <polygon fill="#a62005" class="primary-fill-color"
                                points="101 64.5487256 128 64.5487256 128 62.5487256 101 62.5487256"></polygon>
                            <polygon fill="#a62005" class="primary-fill-color"
                                points="142 94.5487256 144 94.5487256 144 88.5487256 142 88.5487256"></polygon>
                            <polygon fill="#a62005" class="primary-fill-color"
                                points="107 72.5487256 121 72.5487256 121 70.5487256 107 70.5487256"></polygon>
                            <path
                                d="M95.8782263,48.679586 L132.121774,48.679586 L132.121774,28.4178652 L95.8782263,28.4178652 L95.8782263,48.679586 Z M133.062131,50.5487256 L94.9378693,50.5487256 C94.4204242,50.5487256 94,50.1303354 94,49.6141558 L94,27.4832954 C94,26.9668683 94.4204242,26.5487256 94.9378693,26.5487256 L133.062131,26.5487256 C133.579576,26.5487256 134,26.9668683 134,27.4832954 L134,49.6141558 C134,50.1303354 133.579576,50.5487256 133.062131,50.5487256 L133.062131,50.5487256 Z"
                                fill="#a62005" class="primary-fill-color"></path>
                            <path
                                d="M94.3741007,100.063246 C94.5635492,100.063246 94.7529976,100.124444 94.9136691,100.247086 L98.1894484,102.755937 L98.1894484,89.4195857 L90.8105516,89.4195857 L90.8105516,102.692757 L93.8153477,100.2622 C93.9784173,100.129647 94.177458,100.063246 94.3741007,100.063246 Z M89.9064748,105.548476 C89.7721823,105.548476 89.6354916,105.517506 89.5107914,105.454326 C89.1990408,105.29774 89,104.97094 89,104.613418 L89,88.4840318 C89,87.9674455 89.4052758,87.5487256 89.9064748,87.5487256 L99.0935252,87.5487256 C99.5947242,87.5487256 100,87.9674455 100,88.4840318 L100,104.613418 C100,104.966728 99.8057554,105.289811 99.501199,105.448875 C99.1966427,105.607444 98.8297362,105.575482 98.5539568,105.364883 L94.3884892,102.174189 L90.4652278,105.349522 C90.3021583,105.481084 90.1055156,105.548476 89.9064748,105.548476 L89.9064748,105.548476 Z"
                                fill="#a62005" class="primary-fill-color"></path>
                            <polygon fill="#a62005" class="primary-fill-color"
                                points="126 57.5487256 129 57.5487256 129 55.5487256 126 55.5487256"></polygon>
                            <polygon fill="#a62005" class="primary-fill-color"
                                points="119 57.5487256 122 57.5487256 122 55.5487256 119 55.5487256"></polygon>
                            <polygon fill="#a62005" class="primary-fill-color"
                                points="113 57.5487256 116 57.5487256 116 55.5487256 113 55.5487256"></polygon>
                            <polygon fill="#a62005" class="primary-fill-color"
                                points="107 57.5487256 110 57.5487256 110 55.5487256 107 55.5487256"></polygon>
                            <polygon fill="#a62005" class="primary-fill-color"
                                points="101 57.5487256 104 57.5487256 104 55.5487256 101 55.5487256"></polygon>
                            <polygon fill="#a62005" class="primary-fill-color"
                                points="94 57.5487256 97 57.5487256 97 55.5487256 94 55.5487256"></polygon>
                            <polygon fill="#a62005" class="primary-fill-color"
                                points="132 57.5487256 135 57.5487256 135 55.5487256 132 55.5487256"></polygon>
                        </g>
                    </svg>