 <svg xmlns="http://www.w3.org/2000/svg" width="246px" height="180px" viewBox="0 0 164 128">
                        <g stroke="none" stroke-width="1" fill="none" fill-rule="evenodd">
                            <g fill="#E1E1E1">
                                <path
                                    d="M120.306243,127.872987 C117.691517,127.872987 115.253969,126.647738 113.707196,124.576062 L81.3047491,124.576062 C80.8979217,124.576062 80.5677253,124.24262 80.5677253,123.831245 L80.5677253,122.014335 L82.0417729,122.014335 L82.0417729,123.086428 L114.085469,123.086428 C114.329517,123.086428 114.557457,123.208262 114.694612,123.41247 C115.947797,125.272539 118.04563,126.383353 120.306243,126.383353 C122.566856,126.383353 124.664446,125.272539 125.917386,123.41247 C126.054541,123.208262 126.282725,123.086428 126.526529,123.086428 L158.539231,123.086428 L158.539231,73.7637611 L154.903898,73.7637611 L154.903898,72.2741272 L159.276255,72.2741272 C159.683571,72.2741272 160.013035,72.6075684 160.013035,73.0189441 L160.013035,123.831245 C160.013035,124.24262 159.683571,124.576062 159.276255,124.576062 L126.904803,124.576062 C125.358517,126.647738 122.920725,127.872987 120.306243,127.872987">
                                </path>
                                <path
                                    d="M119.915523,123.431707 C118.318231,123.431707 116.841743,122.659514 115.965856,121.36669 L115.146344,120.157225 L85.6768622,120.157225 C85.2697908,120.157225 84.9398384,119.824031 84.9398384,119.412655 L84.9398384,114.257634 L86.413886,114.257634 L86.413886,118.667592 L115.534868,118.667592 C115.77794,118.667592 116.005636,118.788933 116.143035,118.991908 L117.18219,120.525195 C117.783035,121.412316 118.805106,121.942073 119.915523,121.942073 C121.02594,121.942073 122.047523,121.412316 122.648368,120.525195 L123.687767,118.991908 C123.825166,118.788933 124.052618,118.667592 124.29569,118.667592 L153.438148,118.667592 L153.438148,114.257634 L154.912196,114.257634 L154.912196,119.412655 C154.912196,119.824031 154.581999,120.157225 154.175172,120.157225 L124.684213,120.157225 L123.864457,121.36669 C122.989059,122.659514 121.512815,123.431707 119.915523,123.431707">
                                </path>
                                <path
                                    d="M120.846809,120.427283 L119.372761,120.427283 C119.372761,117.435931 116.964499,115.002451 114.00469,115.002451 L85.6768622,115.002451 C85.2697908,115.002451 84.9398384,114.66901 84.9398384,114.257634 L84.9398384,111.025819 L86.413886,111.025819 L86.413886,113.512817 L114.00469,113.512817 C117.777666,113.512817 120.846809,116.614659 120.846809,120.427283">
                                </path>
                                <path
                                    d="M120.663041,74.0335723 L120.663041,116.389981 C121.906707,114.648293 123.931815,113.512817 126.214636,113.512817 L153.438148,113.512817 L153.438148,68.6089865 L126.030868,68.6089865 C123.071059,68.6089865 120.663041,71.0422197 120.663041,74.0335723 Z M120.846809,120.427283 L119.372761,120.427283 C119.372761,120.151553 119.388624,119.879029 119.420106,119.611684 C119.277582,119.476285 119.188993,119.283669 119.188993,119.070335 L119.188993,74.0335723 C119.188993,71.0422197 116.780975,68.6089865 113.821166,68.6089865 L99.313267,68.6089865 L99.313267,67.1193526 L113.821166,67.1193526 C116.483481,67.1193526 118.795832,68.6642312 119.926017,70.9134798 C121.056201,68.6642312 123.368309,67.1193526 126.030868,67.1193526 L154.175172,67.1193526 C154.581999,67.1193526 154.912196,67.4527938 154.912196,67.8641696 L154.912196,114.257634 C154.912196,114.66901 154.581999,115.002451 154.175172,115.002451 L126.214636,115.002451 C123.254826,115.002451 120.846809,117.435931 120.846809,120.427283 L120.846809,120.427283 Z">
                                </path>
                                <polygon
                                    points="92.2353979 86.2828516 113.367481 86.2828516 113.367481 84.7932177 92.2353979 84.7932177">
                                </polygon>
                                <polygon
                                    points="92.2353979 91.4373796 113.367481 91.4373796 113.367481 89.9477457 92.2353979 89.9477457">
                                </polygon>
                                <polygon
                                    points="126.484309 98.065264 149.074088 98.065264 149.074088 96.5756301 126.484309 96.5756301">
                                </polygon>
                                <polygon
                                    points="126.484309 103.220039 138.87241 103.220039 138.87241 101.730405 126.484309 101.730405">
                                </polygon>
                                <polygon
                                    points="126.484309 108.374813 149.074088 108.374813 149.074088 106.885179 126.484309 106.885179">
                                </polygon>
                                <path
                                    d="M114.833475,100.265927 L113.359428,100.265927 L113.359428,98.065264 L111.181547,98.065264 L111.181547,96.5756301 L114.096451,96.5756301 C114.503279,96.5756301 114.833475,96.9090713 114.833475,97.320447 L114.833475,100.265927">
                                </path>
                                <polyline
                                    points="94.4738027 105.816046 93.4317194 104.762697 98.7922253 99.3455106 99.8343086 100.398613 94.4738027 105.816046">
                                </polyline>
                                <polyline
                                    points="105.421047 104.21321 101.816463 100.570513 102.858791 99.5174104 106.46313 103.159861 105.421047 104.21321">
                                </polyline>
                                <polyline
                                    points="108.712517 103.339407 107.67019 102.286058 112.837898 97.0642004 113.880225 98.1173025 108.712517 103.339407">
                                </polyline>
                                <path
                                    d="M100.979624,98.8016956 C100.582559,98.8016956 100.259196,99.1282312 100.259196,99.5297418 C100.259196,99.9310058 100.582559,100.257541 100.979624,100.257541 C101.376934,100.257541 101.700053,99.9310058 101.700053,99.5297418 C101.700053,99.1282312 101.376934,98.8016956 100.979624,98.8016956 Z M100.979624,101.747175 C99.7698801,101.747175 98.785392,100.752524 98.785392,99.5297418 C98.785392,98.3072062 99.7698801,97.3120617 100.979624,97.3120617 C102.189856,97.3120617 103.1741,98.3072062 103.1741,99.5297418 C103.1741,100.752524 102.189856,101.747175 100.979624,101.747175 L100.979624,101.747175 Z">
                                </path>
                                <path
                                    d="M106.80919,103.220039 C106.412124,103.220039 106.089005,103.546574 106.089005,103.948085 C106.089005,104.349595 106.412124,104.676378 106.80919,104.676378 C107.206499,104.676378 107.529862,104.349595 107.529862,103.948085 C107.529862,103.546574 107.206499,103.220039 106.80919,103.220039 Z M106.80919,106.165765 C105.599446,106.165765 104.614957,105.170867 104.614957,103.948085 C104.614957,102.725549 105.599446,101.730405 106.80919,101.730405 C108.019422,101.730405 109.00391,102.725549 109.00391,103.948085 C109.00391,105.170867 108.019422,106.165765 106.80919,106.165765 L106.80919,106.165765 Z">
                                </path>
                                <path
                                    d="M92.9638801,105.42958 C92.5665705,105.42958 92.2434515,105.756116 92.2434515,106.157626 C92.2434515,106.558644 92.5665705,106.885179 92.9638801,106.885179 C93.3611896,106.885179 93.6843086,106.558644 93.6843086,106.157626 C93.6843086,105.756116 93.3611896,105.42958 92.9638801,105.42958 Z M92.9638801,108.374813 C91.753892,108.374813 90.7694039,107.380162 90.7694039,106.157626 C90.7694039,104.934844 91.753892,103.939946 92.9638801,103.939946 C94.1738682,103.939946 95.1583563,104.934844 95.1583563,106.157626 C95.1583563,107.380162 94.1738682,108.374813 92.9638801,108.374813 L92.9638801,108.374813 Z">
                                </path>
                                <path
                                    d="M127.950059,85.5296493 L147.608582,85.5296493 L147.608582,75.9728092 L127.950059,75.9728092 L127.950059,85.5296493 Z M148.345606,87.0190366 L127.213035,87.0190366 C126.805963,87.0190366 126.476011,86.685842 126.476011,86.2744663 L126.476011,75.2279923 C126.476011,74.8166166 126.805963,74.4831753 127.213035,74.4831753 L148.345606,74.4831753 C148.752434,74.4831753 149.08263,74.8166166 149.08263,75.2279923 L149.08263,86.2744663 C149.08263,86.685842 148.752434,87.0190366 148.345606,87.0190366 L148.345606,87.0190366 Z">
                                </path>
                                <polygon
                                    points="143.973493 92.9104894 146.159428 92.9104894 146.159428 91.4208555 143.973493 91.4208555">
                                </polygon>
                                <polygon
                                    points="139.601136 92.9104894 141.787071 92.9104894 141.787071 91.4208555 139.601136 91.4208555">
                                </polygon>
                                <polygon
                                    points="135.228779 92.9104894 137.414957 92.9104894 137.414957 91.4208555 135.228779 91.4208555">
                                </polygon>
                                <polygon
                                    points="130.856666 92.9104894 133.042844 92.9104894 133.042844 91.4208555 130.856666 91.4208555">
                                </polygon>
                                <polygon
                                    points="126.484309 92.9104894 128.670487 92.9104894 128.670487 91.4208555 126.484309 91.4208555">
                                </polygon>
                                <polygon
                                    points="109.724338 81.1278304 111.910273 81.1278304 111.910273 79.6381965 109.724338 79.6381965">
                                </polygon>
                                <polygon
                                    points="105.351981 81.1278304 107.53816 81.1278304 107.53816 79.6381965 105.351981 79.6381965">
                                </polygon>
                                <polygon
                                    points="100.979624 81.1278304 103.165803 81.1278304 103.165803 79.6381965 100.979624 79.6381965">
                                </polygon>
                                <polygon
                                    points="96.607511 81.1278304 98.7936896 81.1278304 98.7936896 79.6381965 96.607511 79.6381965">
                                </polygon>
                                <polygon
                                    points="92.2353979 81.1278304 94.4213324 81.1278304 94.4213324 79.6381965 92.2353979 79.6381965">
                                </polygon>
                                <path
                                    d="M42.2136896,123.230459 C42.0367551,123.230459 41.8637253,123.166089 41.7280348,123.045981 L23.3180586,106.759399 L24.2888801,105.638474 L41.9994158,121.306266 L60.0135467,87.0547977 L7.48620149,90.7889942 L18.1632848,100.294782 L17.1888027,101.412748 L5.18995745,90.7300501 C4.96714197,90.5315145 4.88392173,90.2170636 4.9791003,89.9327013 C5.07427887,89.6480925 5.32906459,89.4493102 5.62558245,89.4283468 L61.2369574,85.4744046 C61.5017491,85.4556609 61.7606836,85.5844008 61.9068682,85.8117919 C62.0528086,86.0389364 62.0652551,86.3279846 61.9395705,86.5669672 L42.8645646,122.835114 C42.758892,123.035869 42.5680467,123.177187 42.3469396,123.218127 C42.3025229,123.226513 42.2578622,123.230459 42.2136896,123.230459">
                                </path>
                                <path
                                    d="M19.1050646,116.461256 C18.9669336,116.461256 18.8300229,116.422042 18.7106836,116.345588 C18.5186182,116.22252 18.3934217,116.017079 18.3714574,115.788455 L16.9449991,100.924177 C16.9118086,100.577911 17.1197372,100.254829 17.4460289,100.145079 L61.0563622,85.510659 L61.5210289,86.924578 L18.4688324,101.371807 L19.7473979,114.691946 L29.5080824,111.149626 L30.0061836,112.551461 L19.3539932,116.41711 C19.2732134,116.446705 19.189017,116.461256 19.1050646,116.461256">
                                </path>
                                <path
                                    d="M19.7600884,116.058266 L18.4500408,115.374613 L23.4566777,105.574844 C23.5281836,105.435252 23.6419098,105.321803 23.781261,105.250775 L60.0848086,86.8510829 L60.7454455,88.1828748 L24.6564158,106.473803 L19.7600884,116.058266">
                                </path>
                                <polyline
                                    points="4.29210626 116.504663 3.71444554 115.13415 13.1222372 111.084516 13.6998979 112.455029 4.29210626 116.504663">
                                </polyline>
                                <polyline
                                    points="4.81851697 107.847029 4.29113007 106.456539 13.3831241 102.934443 13.9107551 104.325179 4.81851697 107.847029">
                                </polyline>
                                <polyline
                                    points="24.5812491 122.580593 24.0038324 121.210328 29.1627551 118.989441 29.7404158 120.359954 24.5812491 122.580593">
                                </polyline>
                                <path
                                    d="M122.227874,58.8047784 C121.811773,58.8047784 121.414951,58.9554682 121.099886,59.2353911 C120.756267,59.5407168 120.550779,59.9629441 120.521493,60.4243854 C120.491963,60.88558 120.642297,61.3304971 120.944184,61.6779961 C121.246071,62.0247553 121.663636,62.2326628 122.120249,62.2620116 C122.575886,62.2943198 123.017124,62.1401773 123.360743,61.8350983 C123.704362,61.5300193 123.909606,61.1080385 123.938892,60.6465973 C123.968422,60.1854027 123.818332,59.7399923 123.516446,59.3927399 C123.214559,59.0454875 122.796993,58.8380732 122.34038,58.8084778 C122.302797,58.8060116 122.265213,58.8047784 122.227874,58.8047784 Z M122.234951,63.7555915 C122.165398,63.7555915 122.0956,63.7531252 122.025315,63.7486859 C121.176029,63.6934412 120.398981,63.3072216 119.83694,62.6613025 C119.274898,62.0153834 118.995707,61.1869595 119.050374,60.328447 C119.105041,59.4701811 119.487219,58.6844239 120.126624,58.1166859 C120.765785,57.5487013 121.585297,57.2705048 122.435315,57.3218035 C123.284356,57.3770482 124.061648,57.7632678 124.623446,58.4091869 C125.185487,59.0553526 125.464922,59.8840231 125.410255,60.7425356 C125.355344,61.6008015 124.97341,62.3860655 124.333761,62.9540501 C123.747559,63.4749287 123.008826,63.7555915 122.234951,63.7555915 L122.234951,63.7555915 Z">
                                </path>
                                <path
                                    d="M132.04469,51.1780501 C130.510362,51.1780501 129.215201,52.3865279 129.115386,53.9555761 C129.011178,55.588501 130.241422,57.0031599 131.857749,57.1082235 C133.475053,57.2209326 134.873446,55.9702813 134.977166,54.3368632 C135.027684,53.5456802 134.770213,52.7818728 134.252588,52.1865125 C133.734475,51.5911522 133.017951,51.2352678 132.235047,51.1842158 C132.17135,51.1800231 132.107654,51.1780501 132.04469,51.1780501 Z M132.048838,58.6040231 C131.954148,58.6040231 131.858969,58.6013102 131.762815,58.5951445 C129.335517,58.4368092 127.488076,56.3126012 127.644267,53.8593911 C127.800946,51.4071676 129.90244,49.5451252 132.329737,49.6975414 C133.505559,49.7739961 134.581565,50.3089326 135.359588,51.2032062 C136.137368,52.0974798 136.524184,53.2445472 136.448529,54.4328015 C136.298196,56.7885934 134.353136,58.6040231 132.048838,58.6040231 L132.048838,58.6040231 Z">
                                </path>
                                <path
                                    d="M134.407071,43.6245703 C134.458565,43.6245703 134.510547,43.6299961 134.561553,43.6408478 C134.758987,43.6837611 134.930309,43.8063353 135.035737,43.9804547 C136.561523,46.4990212 139.214321,48.0024663 142.131422,48.0024663 C144.849624,48.0024663 147.402118,46.6529171 148.958898,44.3923237 C149.136565,44.1343507 149.455779,44.0162158 149.755713,44.0988362 C150.603535,44.3296802 151.477957,44.4468285 152.355065,44.4468285 C157.852969,44.4468285 162.326606,39.9266281 162.326606,34.370343 C162.326606,32.1642543 161.633511,30.069395 160.320535,28.3116763 C160.144821,28.0731869 160.125297,27.7503507 160.271725,27.4911445 C160.830594,26.5093179 161.128332,25.3957919 161.128332,24.2704277 C161.128332,20.7031985 158.255892,17.8008786 154.726231,17.8008786 C153.934297,17.8008786 153.151392,17.9520617 152.398749,18.2490019 C152.212053,18.3224971 152.00388,18.3160848 151.822553,18.2322312 C151.640493,18.1476378 151.50041,17.992262 151.434517,17.8013719 C150.144969,14.0718613 146.652404,11.5661195 142.743493,11.5661195 C139.522797,11.5661195 136.590321,13.2234605 134.898826,15.9997534 C134.747517,16.2478613 134.465642,16.3844933 134.180594,16.3479923 C133.681761,16.285842 133.213434,16.2552601 132.749011,16.2552601 C126.407434,16.2552601 121.248267,21.4689788 121.248267,27.8776108 C121.248267,30.918289 122.405297,33.7949595 124.505326,35.9773719 C124.69544,36.174921 124.762065,36.4619961 124.678844,36.7239152 C124.483362,37.3402389 124.384279,37.9787592 124.384279,38.6217187 C124.384279,42.0468902 127.141529,44.8332948 130.531106,44.8332948 C131.771844,44.8332948 132.968654,44.4601464 133.991457,43.7542967 C134.114946,43.6689634 134.25991,43.6245703 134.407071,43.6245703 Z M142.131422,49.4921002 C138.94416,49.4921002 136.02535,47.9679383 134.186451,45.3793295 C133.068957,45.9986127 131.81919,46.3229287 130.531106,46.3229287 C126.32885,46.3229287 122.910231,42.8681618 122.910231,38.6217187 C122.910231,37.9725934 122.991499,37.3274143 123.152571,36.6980193 C120.970785,34.2776108 119.774219,31.1626975 119.774219,27.8776108 C119.774219,20.6474605 125.594755,14.7656262 132.749011,14.7656262 C133.121428,14.7656262 133.506535,14.7838767 133.898475,14.8196378 C135.8921,11.8406166 139.164291,10.0764855 142.743493,10.0764855 C147.033606,10.0764855 150.891511,12.6779191 152.561773,16.6219961 C153.268535,16.415815 153.993844,16.3114913 154.726231,16.3114913 C159.068815,16.3114913 162.60238,19.8819268 162.60238,24.2704277 C162.60238,25.4944432 162.316844,26.7061272 161.777499,27.8043622 C163.102678,29.7396532 163.800654,31.9990135 163.800654,34.370343 C163.800654,40.7476532 158.665892,45.9364624 152.355065,45.9364624 C151.517981,45.9364624 150.68285,45.8434836 149.865779,45.659499 C148.015654,48.0688092 145.161029,49.4921002 142.131422,49.4921002 L142.131422,49.4921002 Z">
                                </path>
                                <polygon
                                    points="131.691065 30.7888092 152.702588 30.7888092 152.702588 29.2991753 131.691065 29.2991753">
                                </polygon>
                                <polygon
                                    points="131.691065 36.0972331 143.947868 36.0972331 143.947868 34.6075992 131.691065 34.6075992">
                                </polygon>
                                <polygon
                                    points="148.033225 36.0972331 151.535309 36.0972331 151.535309 34.6075992 148.033225 34.6075992">
                                </polygon>
                                <polygon
                                    points="149.200505 26.0703198 150.951547 26.0703198 150.951547 24.5806859 149.200505 24.5806859">
                                </polygon>
                                <polygon
                                    points="145.698666 26.0703198 147.449707 26.0703198 147.449707 24.5806859 145.698666 24.5806859">
                                </polygon>
                                <polygon
                                    points="142.196826 26.0703198 143.947868 26.0703198 143.947868 24.5806859 142.196826 24.5806859">
                                </polygon>
                                <polygon
                                    points="138.695231 26.0703198 140.445785 26.0703198 140.445785 24.5806859 138.695231 24.5806859">
                                </polygon>
                                <polygon
                                    points="135.193148 26.0703198 136.94419 26.0703198 136.94419 24.5806859 135.193148 24.5806859">
                                </polygon>
                                <polygon
                                    points="131.691065 26.0703198 133.442106 26.0703198 133.442106 24.5806859 131.691065 24.5806859">
                                </polygon>
                                <path
                                    d="M40.8223741,66.3025202 L38.1747015,48.8030212 C38.1393146,48.5699576 38.2152134,48.3341811 38.3789694,48.166474 C40.9641658,45.5243468 42.9804872,42.7386821 44.3718027,39.8866744 L45.6940527,40.5456647 C44.2797967,43.4442852 42.2598146,46.2684239 39.6873086,48.9455723 L42.2795824,66.0771021 L40.8223741,66.3025202">
                                </path>
                                <path
                                    d="M19.4501479,61.0680848 L19.0208682,56.7027669 L8.15806459,56.7027669 C6.37432054,56.7027669 4.9232134,55.2365626 4.9232134,53.4339576 L4.9232134,43.4502042 L2.16376697,43.0491869 C2.13301697,43.0447476 2.10299911,43.0383353 2.07298126,43.0301965 C1.0892253,42.7564393 0.396618161,42.2054721 0.123284827,41.4791522 C-0.106363982,40.868501 -0.0131377917,40.190027 0.385880065,39.5680308 C2.47907649,36.3066204 4.9232134,31.5782659 4.9232134,28.9862042 L4.9232134,28.2394143 C4.89173126,27.7259345 4.87684435,27.2948285 4.87684435,26.8849326 C4.87684435,19.3871908 8.64127887,12.5407938 14.9464932,8.57131407 C15.8214039,8.02010019 16.8293205,7.53399615 18.0280824,7.08488632 C19.9358027,6.36991137 22.7477194,5.97875915 24.5629455,5.91463584 C25.0195586,5.89860501 25.4783682,5.8958921 25.9276598,5.90674374 L25.8930051,7.39588439 C25.4720229,7.38601927 25.041767,7.38823892 24.6141955,7.40328324 C22.8599813,7.46568015 20.2179217,7.85288632 18.5642551,8.47216956 C17.4360229,8.89538343 16.5154753,9.33808092 15.7259813,9.83528324 C9.85565983,13.5310058 6.35113602,19.9048632 6.35113602,26.8849326 C6.35113602,27.2691792 6.36529078,27.6775954 6.39579673,28.1696185 C6.39677292,28.1846628 6.39726102,28.200447 6.39726102,28.2159846 L6.39726102,28.9862042 C6.39726102,32.6540578 2.74264792,38.6333102 1.6227134,40.3782042 C1.48189792,40.5979499 1.44089792,40.7898266 1.50093364,40.9496416 C1.59733245,41.205395 1.9399753,41.440185 2.42196935,41.5817495 L5.76517768,42.0678536 C6.12783245,42.120632 6.39726102,42.4348362 6.39726102,42.8052717 L6.39726102,53.4339576 C6.39726102,54.4147977 7.18724316,55.2131329 8.15806459,55.2131329 L19.6880944,55.2131329 C20.0671003,55.2131329 20.3841182,55.5034143 20.4217015,55.8842081 L20.9171182,60.9203545 L19.4501479,61.0680848">
                                </path>
                                <path
                                    d="M33.7584158,35.1435222 C33.6642134,35.1435222 33.5690348,35.1252717 33.4782491,35.0875376 C33.2017432,34.9726089 33.021636,34.700578 33.021636,34.3987052 L33.021636,26.7300501 L28.3159098,26.7300501 C26.6070884,26.7300501 25.2165051,25.324763 25.2165051,23.5976262 L25.2165051,3.13242389 C25.2165051,1.40528709 26.6070884,0 28.3159098,0 L57.1525765,0 C58.861642,0 60.2522253,1.40528709 60.2522253,3.13242389 L60.2522253,9.59358767 L58.7781777,9.59358767 L58.7781777,3.13242389 C58.7781777,2.22655877 58.0489634,1.48963391 57.1525765,1.48963391 L28.3159098,1.48963391 C27.419767,1.48963391 26.6905527,2.22655877 26.6905527,3.13242389 L26.6905527,23.5976262 C26.6905527,24.503738 27.419767,25.2404162 28.3159098,25.2404162 L33.7586598,25.2404162 C34.1657313,25.2404162 34.4956836,25.574104 34.4956836,25.9852331 L34.4956836,32.5882081 L41.4798384,25.461395 C41.6182134,25.3200771 41.8068622,25.2404162 42.0035646,25.2404162 L51.1302134,25.2404162 L51.1302134,26.7300501 L42.3108205,26.7300501 L34.282142,34.92279 C34.1413265,35.0668208 33.9514574,35.1435222 33.7584158,35.1435222">
                                </path>
                                <path
                                    d="M37.316142,12.9694335 C37.316142,13.8826975 36.583511,14.6233218 35.6795586,14.6233218 C34.7758503,14.6233218 34.0429753,13.8826975 34.0429753,12.9694335 C34.0429753,12.0559229 34.7758503,11.3155453 35.6795586,11.3155453 C36.583511,11.3155453 37.316142,12.0559229 37.316142,12.9694335">
                                </path>
                                <path
                                    d="M44.4352551,12.9694335 C44.4352551,13.8826975 43.7026241,14.6233218 42.7986717,14.6233218 C41.8949634,14.6233218 41.1620884,13.8826975 41.1620884,12.9694335 C41.1620884,12.0559229 41.8949634,11.3155453 42.7986717,11.3155453 C43.7026241,11.3155453 44.4352551,12.0559229 44.4352551,12.9694335">
                                </path>
                                <path
                                    d="M51.5543682,12.9694335 C51.5543682,13.8826975 50.8217372,14.6233218 49.9177848,14.6233218 C49.0138324,14.6233218 48.2812015,13.8826975 48.2812015,12.9694335 C48.2812015,12.0559229 49.0138324,11.3155453 49.9177848,11.3155453 C50.8217372,11.3155453 51.5543682,12.0559229 51.5543682,12.9694335">
                                </path>
                                <path
                                    d="M20.4129158,75.3185048 C20.5310348,75.3185048 20.6484217,75.3468671 20.7560467,75.4038382 L24.6232253,77.4587437 L23.8844932,73.1069904 C23.8434932,72.8652948 23.9228086,72.6189133 24.0965705,72.4475067 L27.225017,69.3658882 L22.9014694,68.7310674 C22.6615705,68.6957996 22.453886,68.5436301 22.3467491,68.3233911 L20.4129158,64.3645164 L18.4793265,68.3233911 C18.3719455,68.5436301 18.1645051,68.6957996 17.9243622,68.7310674 L13.6008146,69.3658882 L16.7295051,72.4475067 C16.9030229,72.6189133 16.9825824,72.8652948 16.9415824,73.1069904 L16.2028503,77.4587437 L20.0700289,75.4038382 C20.1774098,75.3468671 20.2950408,75.3185048 20.4129158,75.3185048 Z M25.6021003,79.5651946 C25.4847134,79.5651946 25.3668384,79.5368324 25.2592134,79.4796146 L20.4129158,76.904817 L15.5668622,79.4796146 C15.3189098,79.6110674 15.0177551,79.5896108 14.7907908,79.4228902 C14.5638265,79.2564162 14.4501003,78.974027 14.4974455,78.6945973 L15.4231182,73.2411561 L11.5024932,69.3792062 C11.301642,69.1811638 11.2294039,68.8854566 11.3157967,68.6156455 C11.4026777,68.3460809 11.6333027,68.1492717 11.9110289,68.108578 L17.3291301,67.3132023 L19.7520348,62.3517842 C19.8762551,62.0975106 20.1325051,61.9364624 20.4129158,61.9364624 C20.6935705,61.9364624 20.9498205,62.0975106 21.0740408,62.3517842 L23.4969455,67.3132023 L28.9148027,68.108578 C29.1925289,68.1492717 29.4231539,68.3460809 29.5097908,68.6156455 C29.5964277,68.8849634 29.5244336,69.1811638 29.3233384,69.3792062 L25.4027134,73.2411561 L26.328386,78.6945973 C26.3759753,78.974027 26.2622491,79.2564162 26.0352848,79.4228902 C25.9069158,79.5171021 25.7548741,79.5651946 25.6021003,79.5651946 L25.6021003,79.5651946 Z">
                                </path>
                                <path
                                    d="M43.1520527,80.1445241 C43.2699277,80.1445241 43.3875586,80.1728863 43.4949396,80.2298574 L44.6497729,80.8434682 L44.4291539,79.5442312 C44.3881539,79.3027823 44.4677134,79.0561541 44.6412313,78.8852408 L45.5752015,77.964578 L44.2844336,77.7751676 C44.0442908,77.7398998 43.8368503,77.5874836 43.7294694,77.3674913 L43.1520527,76.1854027 L42.5748801,77.3674913 C42.4674991,77.5874836 42.2600586,77.7398998 42.0199158,77.7751676 L40.7289039,77.964578 L41.6631182,78.8847476 C41.836636,79.0561541 41.9159515,79.3027823 41.8751955,79.5442312 L41.6543324,80.8434682 L42.8091658,80.2298574 C42.9165467,80.1728863 43.0341777,80.1445241 43.1520527,80.1445241 Z M40.6754574,82.9494258 C40.5229277,82.9494258 40.370642,82.90158 40.2422729,82.807368 C40.0153086,82.640894 39.9018265,82.3582582 39.9491717,82.0788285 L40.3567313,79.6783969 L38.6305824,77.9781426 C38.4294872,77.7798536 38.3574932,77.4843931 38.443886,77.2143353 C38.530767,76.9450173 38.761392,76.7482081 39.0391182,76.7075145 L41.4244396,76.3573025 L42.4911717,74.1729171 C42.615392,73.9186435 42.871642,73.7575954 43.1520527,73.7575954 C43.4324634,73.7575954 43.6889574,73.9186435 43.8129336,74.1729171 L44.8799098,76.3573025 L47.2649872,76.7075145 C47.5427134,76.7482081 47.7733384,76.9450173 47.8599753,77.2143353 C47.9466122,77.4838998 47.8746182,77.7798536 47.6735229,77.9776493 L45.9476182,79.6783969 L46.3549336,82.0788285 C46.4025229,82.3582582 46.2885527,82.640894 46.0618324,82.807368 C45.8346241,82.9735954 45.5342015,82.9955453 45.285517,82.8640925 L43.1520527,81.7308362 L41.0185884,82.8640925 C40.9107194,82.9213102 40.7928444,82.9494258 40.6754574,82.9494258 L40.6754574,82.9494258 Z">
                                </path>
                                <path
                                    d="M59.758761,118.347715 C59.876636,118.347715 59.994267,118.376077 60.1016479,118.433048 L61.9078444,119.392925 L61.5630051,117.360462 C61.521761,117.118767 61.6013205,116.872139 61.7748384,116.700979 L63.2359515,115.261904 L61.2167015,114.965457 C60.9768027,114.930189 60.7691182,114.777773 60.6617372,114.55778 L59.758761,112.708809 L58.8555408,114.55778 C58.7481598,114.777773 58.5407194,114.930189 58.3005765,114.965457 L56.2815705,115.261904 L57.7426836,116.700979 C57.9162015,116.872139 57.995761,117.118767 57.954517,117.360462 L57.6096777,119.392678 L59.4158741,118.433048 C59.523011,118.376077 59.640642,118.347715 59.758761,118.347715 Z M56.6308027,121.498882 C56.4780289,121.498882 56.3259872,121.451037 56.1976182,121.356825 C55.9706539,121.190351 55.8569277,120.907468 55.9042729,120.628532 L56.4362967,117.494628 L54.1832491,115.275222 C53.9823979,115.077179 53.9099158,114.781472 53.9965527,114.511661 C54.0831896,114.242096 54.3140586,114.045287 54.5915408,114.004593 L57.7051003,113.547592 L59.097636,110.696077 C59.2218563,110.44205 59.4781063,110.280755 59.758761,110.280755 C60.0391717,110.280755 60.2954217,110.44205 60.419642,110.696077 L61.8121777,113.547592 L64.9257372,114.004593 C65.2034634,114.045287 65.4340884,114.242096 65.5207253,114.511661 C65.6073622,114.781472 65.5351241,115.077179 65.3342729,115.275222 L63.0812253,117.494628 L63.6130051,120.628532 C63.6605944,120.907468 63.5468682,121.190351 63.3199039,121.356825 C63.0926955,121.523052 62.7917848,121.544755 62.5435884,121.413549 L59.758761,119.934027 L56.9736896,121.413549 C56.8660646,121.470767 56.7481896,121.498882 56.6308027,121.498882 L56.6308027,121.498882 Z">
                                </path>
                                <path
                                    d="M134.407071,43.6245703 C134.458565,43.6245703 134.510547,43.6299961 134.561553,43.6408478 C134.758987,43.6837611 134.930309,43.8063353 135.035737,43.9804547 C136.561523,46.4990212 139.214321,48.0024663 142.131422,48.0024663 C144.849624,48.0024663 147.402118,46.6529171 148.958898,44.3923237 C149.136565,44.1343507 149.455779,44.0162158 149.755713,44.0988362 C150.603535,44.3296802 151.477957,44.4468285 152.355065,44.4468285 C157.852969,44.4468285 162.326606,39.9266281 162.326606,34.370343 C162.326606,32.1642543 161.633511,30.069395 160.320535,28.3116763 C160.144821,28.0731869 160.125297,27.7503507 160.271725,27.4911445 C160.830594,26.5093179 161.128332,25.3957919 161.128332,24.2704277 C161.128332,20.7031985 158.255892,17.8008786 154.726231,17.8008786 C153.934297,17.8008786 153.151392,17.9520617 152.398749,18.2490019 C152.212053,18.3224971 152.00388,18.3160848 151.822553,18.2322312 C151.640493,18.1476378 151.50041,17.992262 151.434517,17.8013719 C150.144969,14.0718613 146.652404,11.5661195 142.743493,11.5661195 C139.522797,11.5661195 136.590321,13.2234605 134.898826,15.9997534 C134.747517,16.2478613 134.465642,16.3844933 134.180594,16.3479923 C133.681761,16.285842 133.213434,16.2552601 132.749011,16.2552601 C126.407434,16.2552601 121.248267,21.4689788 121.248267,27.8776108 C121.248267,30.918289 122.405297,33.7949595 124.505326,35.9773719 C124.69544,36.174921 124.762065,36.4619961 124.678844,36.7239152 C124.483362,37.3402389 124.384279,37.9787592 124.384279,38.6217187 C124.384279,42.0468902 127.141529,44.8332948 130.531106,44.8332948 C131.771844,44.8332948 132.968654,44.4601464 133.991457,43.7542967 C134.114946,43.6689634 134.25991,43.6245703 134.407071,43.6245703 Z M142.131422,49.4921002 C138.94416,49.4921002 136.02535,47.9679383 134.186451,45.3793295 C133.068957,45.9986127 131.81919,46.3229287 130.531106,46.3229287 C126.32885,46.3229287 122.910231,42.8681618 122.910231,38.6217187 C122.910231,37.9725934 122.991499,37.3274143 123.152571,36.6980193 C120.970785,34.2776108 119.774219,31.1626975 119.774219,27.8776108 C119.774219,20.6474605 125.594755,14.7656262 132.749011,14.7656262 C133.121428,14.7656262 133.506535,14.7838767 133.898475,14.8196378 C135.8921,11.8406166 139.164291,10.0764855 142.743493,10.0764855 C147.033606,10.0764855 150.891511,12.6779191 152.561773,16.6219961 C153.268535,16.415815 153.993844,16.3114913 154.726231,16.3114913 C159.068815,16.3114913 162.60238,19.8819268 162.60238,24.2704277 C162.60238,25.4944432 162.316844,26.7061272 161.777499,27.8043622 C163.102678,29.7396532 163.800654,31.9990135 163.800654,34.370343 C163.800654,40.7476532 158.665892,45.9364624 152.355065,45.9364624 C151.517981,45.9364624 150.68285,45.8434836 149.865779,45.659499 C148.015654,48.0688092 145.161029,49.4921002 142.131422,49.4921002 L142.131422,49.4921002 Z">
                                </path>
                            </g>
                            <path
                                d="M48.8840998,32 L48,31.8921075 C48.063129,31.1732871 48.0997702,30.4596704 48.1088938,29.7710321 C48.1209604,28.8607112 48.0853492,27.9686036 48.0029431,27.118647 L48.8860128,27 C48.9728335,27.8943625 49.0103577,28.8320902 48.9975553,29.7875108 C48.9879903,30.5066782 48.9498775,31.2509974 48.8840998,32"
                                fill="#BFC5D0"></path>
                            <path
                                d="M110.223747,40.6047064 L118,37.389772 L116.484016,29.1731669 L108.197837,28.9895557 C106.992982,25.8026592 105.286331,22.8688486 103.181099,20.2767039 L107.084375,12.7828821 L100.679504,7.47006474 L94.2066424,12.7007533 C91.3227259,11.0767859 88.1614293,9.89621496 84.8097109,9.25928229 L83.019303,1 L74.7225314,1.07691824 L73.1018526,9.27541031 C69.7484098,9.91879419 66.5851425,11.0941545 63.7061528,12.7218438 L57.0647941,7.55442669 L50.758213,12.9851027 L54.747216,20.3119374 C52.6454329,22.9090446 50.9535615,25.8517876 49.7543726,29.0376916 L41.3654693,29.3793575 L40,37.6225117 L47.7341284,40.6538348 C47.784382,44.1268175 48.3970325,47.458618 49.4755143,50.5693406 L43.266977,56.2627792 L47.4816286,63.4613341 L55.3436081,60.7749025 C55.3436081,60.7749025 64.2936766,70.2991177 66.0929527,76 L66.0929527,66.5492293 L64.9289906,63.1000665 L60.006108,59.1429951 L56.3371021,52.0866149 L54.2121629,43.0323454 L56.186095,34.4467808 L61.279692,25.6416272 L68.0373239,20.6459114 L75.1393407,18.7594295 L83.5615,19.333587 L92.2056128,22.769103 L99.2842272,31.4693005 L102.444785,41.4401378 L101.511152,48.7625062 L98.8321911,55.5057548 L93.1803849,62.2078149 L90.4797463,66.0430577 L90.4797463,75.9362323 C92.1092934,70.1847328 102.651958,60.735699 102.651958,60.735699 L110.658293,63.3067533 L114.74066,56.031032 L108.508227,50.523934 C109.583014,47.4094896 110.179652,44.0732229 110.223747,40.6047064"
                                fill="#EEEEEE"></path>
                            <path
                                d="M85.1987808,98.0520706 L79.0042799,102 L72.8042403,98.0520706 L65,102 L65,101.978684 C65,101.978684 65,97.2494968 65,93.680299 C65,90.9520934 67.0052509,90.9520934 67.0052509,88.2238878 C67.0052509,85.4974173 65,85.4974173 65,82.7711946 C65,80.0474505 66.321225,79.8702299 66.321225,77.146238 L90.4889676,77 C90.4889676,79.7239919 92.2391879,79.9582206 92.2391879,82.6822125 C92.2391879,85.4084352 90.2553364,85.3504357 90.2553364,88.0769063 C90.2553364,90.804864 92.234908,90.5604731 92.234908,93.2889266 C92.234908,96.0171321 92.2391879,101.684721 92.2391879,101.684721 L93,102 L85.1987808,98.0520706 Z"
                                fill="#EEEEEE"></path>
                            <path
                                d="M78.5001233,123 C78.1940502,123 77.9074611,122.845673 77.7338306,122.587366 L64.1647517,102.410786 C64.0572192,102.251147 64,102.06216 64,101.868366 L64,93.4884227 C64,91.8014542 64.6368097,90.8992751 65.1483293,90.1734334 C65.6100287,89.5189361 65.9434782,89.046342 65.9434782,87.9784515 C65.9434782,86.9113199 65.6100287,86.4389788 65.1485759,85.7849875 C64.6370564,85.0601577 64,84.1579787 64,82.4717691 C64,80.858928 64.4306235,80.0248045 64.8109336,79.2888429 C65.1429033,78.6459834 65.4050756,78.1379701 65.4050756,77 L67.2674111,77 C67.2674111,78.6128411 66.836541,79.4469646 66.4562309,80.1831792 C66.1242612,80.8257857 65.8620889,81.333799 65.8620889,82.4717691 C65.8620889,83.5389007 66.1952918,84.0109888 66.6569912,84.66498 C67.1685108,85.3898098 67.8055671,86.2922419 67.8055671,87.9784515 C67.8055671,89.66542 67.1687574,90.5678521 66.6569912,91.2934408 C66.1955385,91.9474321 65.8620889,92.4202792 65.8620889,93.4884227 L65.8620889,101.571097 L78.5001233,120.363036 L91.1379111,101.571097 L91.1379111,93.4884227 C91.1379111,92.4202792 90.8044615,91.9474321 90.3427621,91.2934408 C89.830996,90.5678521 89.1941862,89.66542 89.1941862,87.9784515 C89.1941862,86.2922419 89.8312426,85.3898098 90.3430088,84.66498 C90.8044615,84.0109888 91.1379111,83.5389007 91.1379111,82.4717691 C91.1379111,81.3555565 90.8515687,80.8536151 90.488523,80.2183454 C90.0648053,79.476059 89.5843617,78.6345987 89.5843617,77 L91.4464506,77 C91.4464506,78.1162126 91.732793,78.618154 92.095592,79.2534237 C92.5195564,79.9957101 93,80.8374234 93,82.4717691 C93,84.1579787 92.3629436,85.0601577 91.8511775,85.7849875 C91.3897247,86.4389788 91.0565218,86.9113199 91.0565218,87.9784515 C91.0565218,89.046342 91.3899713,89.5189361 91.8514241,90.1734334 C92.3631903,90.8992751 93,91.8014542 93,93.4884227 L93,101.868366 C93,102.06216 92.9425342,102.251147 92.8352483,102.410786 L79.2661694,122.587366 C79.0925389,122.845673 78.8059498,123 78.5001233,123"
                                fill="#a62005" class="primary-fill-color"></path>
                            <polygon fill="#a62005" class="primary-fill-color" points="65 82 93 82 93 81 65 81">
                            </polygon>
                            <polyline fill="#a62005" class="primary-fill-color"
                                points="67.009605 88 67 86.1195517 89.990395 86 90 87.8804483 67.009605 88"></polyline>
                            <path
                                d="M78.4414267,102 C78.2618846,102 78.0825944,101.95677 77.9252118,101.871161 L72.1856575,98.7315421 L64.8687519,101.911197 L64,100.480981 L71.805673,97.0887949 C72.1078475,96.9576137 72.4707089,96.9725206 72.7565156,97.1286178 L78.4414267,100.238423 L84.1210497,97.1288308 C84.4063529,96.9725206 84.769466,96.9576137 85.0721442,97.0887949 L92,100.100853 L91.1304927,101.530644 L84.6921596,98.7315421 L78.9581452,101.870735 C78.8010144,101.95677 78.6212206,102 78.4414267,102"
                                fill="#a62005" class="primary-fill-color"></path>
                            <path
                                d="M66.3505405,76.1329946 L89.1445741,76.1329946 C90.8271241,70.2055617 100.617857,60.9857698 101.052175,60.5792325 C101.299296,60.3477733 101.652396,60.2679001 101.975535,60.3705236 L109.271289,62.6937707 L112.612866,56.789088 L106.941224,51.8198862 C106.655227,51.5693861 106.549991,51.1710091 106.675037,50.8121979 C107.738299,47.7555021 108.299149,44.540049 108.341492,41.2551087 C108.346444,40.8809658 108.574498,40.5453994 108.92116,40.4034575 L116.007432,37.4988423 L114.766629,30.8302947 L107.225982,30.6646134 C106.845644,30.6559585 106.508639,30.4185644 106.373193,30.0634624 C105.216579,27.0312479 103.576371,24.2065059 101.497884,21.6693568 C101.260668,21.3795383 101.219563,20.9762156 101.393637,20.6446058 L104.950887,13.8739294 L99.7083635,9.56225974 L93.8170861,14.282445 C93.519947,14.5200863 93.1081618,14.5549536 92.7758612,14.3689949 C89.9151548,12.7715307 86.8434796,11.6560259 83.6460155,11.0536385 C83.2775631,10.983904 82.9861192,10.7015039 82.9061393,10.3352741 L81.2748457,2.87392937 L74.4839798,2.93649259 L73.0086843,10.3345323 C72.9343995,10.7074388 72.6409747,10.9982465 72.2668271,11.0692175 C69.0470776,11.6814963 65.97565,12.7984848 63.1382195,14.389025 C62.8108712,14.5732527 62.4057716,14.5430839 62.1091278,14.3138502 L56.0578905,9.64584223 L50.895842,14.0532113 L54.5261386,20.6643886 C54.7093744,20.9977295 54.6717368,21.4084707 54.4310541,21.7032349 C52.3721279,24.2255468 50.7395963,27.0539982 49.5792683,30.1101994 C49.4465461,30.4598611 49.1174646,30.6965133 48.7430694,30.711845 L41.0991667,31.0207045 L39.9816761,37.7105186 L47.0206532,40.445496 C47.3754868,40.583234 47.6109695,40.9222624 47.616417,41.3020929 C47.6644545,44.5670031 48.2337235,47.7814671 49.3086241,50.8557202 C49.4319368,51.2093384 49.3323952,51.6017805 49.055313,51.8540116 L43.3982803,56.9973023 L46.8480649,62.8394218 L54.0036691,60.4152822 C54.3409219,60.2997999 54.7123458,60.387339 54.9641711,60.6383337 C55.3754611,61.0478385 64.6466955,70.3339028 66.3505405,76.1329946 Z M89.889898,78 L65.6143784,78 C65.1622318,78 64.7744653,77.6763033 64.6944854,77.231684 C63.8778481,72.6925117 55.9444825,64.3191781 54.0484875,62.3715577 L46.7292093,64.8510892 C46.3095003,64.9937729 45.8486872,64.8221568 45.6238519,64.4410899 L41.4020009,57.2918193 C41.1771657,56.911247 41.2507076,56.4250837 41.5778082,56.1275993 L47.3447824,50.8844053 C46.397404,47.9985837 45.8662679,45.0022256 45.7625168,41.9598723 L38.59577,39.1754378 C38.1832419,39.0149495 37.9398355,38.5876402 38.0128822,38.1516759 L39.3802171,29.9650428 C39.4532638,29.5290785 39.8222115,29.2036508 40.2644535,29.1858463 L48.0566781,28.8712991 C49.1922446,26.043837 50.7133491,23.4065373 52.5875538,21.0165232 L48.8913913,14.2854124 C48.6784416,13.8979161 48.7670881,13.4144729 49.1035981,13.1271272 L55.4205272,7.73358362 C55.7572848,7.44648517 56.2492976,7.43387361 56.5994265,7.70440393 L62.7677861,12.4626711 C65.4440187,11.0303936 68.3074489,9.98808534 71.2969156,9.35948565 L72.798706,1.8276645 C72.885124,1.39392577 73.2642239,1.08036778 73.7067135,1.07641121 L82.0174458,1 C82.4742971,1 82.8447305,1.30243014 82.9393198,1.73419059 L84.6020605,9.33970281 C87.5744417,9.95989479 90.4383672,10.9997302 93.1334186,12.4367062 L99.1309232,7.63096014 C99.4760998,7.35498955 99.9683602,7.35770969 100.31007,7.63862599 L106.725798,12.9152036 C107.06726,13.1963672 107.165069,13.6780793 106.9593,14.0692849 L103.33346,20.9705281 C105.225246,23.3711755 106.754521,26.0030349 107.889593,28.8117033 L115.567419,28.980352 C116.009908,28.9899962 116.385046,29.3084999 116.466017,29.7429805 L117.98415,37.9034013 C118.06512,38.3381292 117.829638,38.7698896 117.420081,38.9377965 L110.197125,41.8985455 C110.10006,44.9564778 109.578085,47.9540723 108.642345,50.8267878 L114.416995,55.8862487 C114.749543,56.177551 114.831752,56.6622305 114.614098,57.047254 L110.524969,64.273183 C110.307314,64.6574646 109.84873,64.8367466 109.427535,64.7029652 L101.934183,62.3171549 C98.7228522,65.393139 91.4909824,73.0545377 90.8122672,77.2163523 C90.7389729,77.6681429 90.3479874,78 89.889898,78 L89.889898,78 Z"
                                fill="#a62005" class="primary-fill-color"></path>
                            <polygon fill="#a62005" class="primary-fill-color" points="71 98 72 98 72 94 71 94">
                            </polygon>
                            <polygon fill="#a62005" class="primary-fill-color" points="85 98 86 98 86 94 85 94">
                            </polygon>
                            <polygon fill="#a62005" class="primary-fill-color" points="78 102 79 102 79 92 78 92">
                            </polygon>
                            <path
                                d="M72.6132503,113 L72,111.790682 C72.1760897,111.755025 72.3497818,111.719031 72.5237402,111.683038 C74.1439784,111.347153 75.8190947,111 79.1227074,111 C82.0030124,111 83.1138958,111.2422 84.4000697,111.522748 C84.5918769,111.564629 84.7892785,111.607855 85,111.651417 L84.3734298,112.858212 C84.1520523,112.812295 83.944794,112.767219 83.7436628,112.72332 C82.5371422,112.460096 81.6652185,112.269868 79.1227074,112.269868 C76.1409045,112.269868 74.6884977,112.570936 73.1508433,112.889664 C72.972356,112.926667 72.7938687,112.96367 72.6132503,113"
                                fill="#a62005" class="primary-fill-color"></path>
                            <path
                                d="M67.4362936,76.1283508 L89.5611598,76.1283508 L89.5611598,69.1625931 C89.5611598,66.02442 90.8925248,63.0506049 93.2139168,61.0029464 C98.2599004,56.5531314 101.153938,50.0792084 101.153938,43.2418632 C101.153938,36.521775 98.3445013,30.1217263 93.4464473,25.6820753 C88.6068314,21.2957229 82.3813245,19.2835141 75.9161964,20.0217619 C65.540107,21.2035039 57.1606984,29.8267247 55.992178,40.5256168 C55.1261183,48.4564514 58.1497474,56.2078059 64.0806179,61.2607629 C66.2130026,63.0776261 67.436049,65.8228768 67.436049,68.7929734 L67.4362936,76.1283508 Z M90.4841906,78 L66.5130182,78 C66.0032117,78 65.5899873,77.5810481 65.5899873,77.0641754 L65.5899873,68.7929734 C65.5899873,66.3771825 64.6068067,64.1542582 62.8930257,62.693876 C56.4887809,57.2375848 53.2230855,48.8731722 54.1573638,40.3196115 C55.4200212,28.7592649 64.4843064,19.4404351 75.7100732,18.1617641 C82.7050577,17.3630285 89.4401266,19.5405869 94.6768291,24.2866431 C99.9661015,29.0807919 103,35.9895325 103,43.2418632 C103,50.6208711 99.8746542,57.6096836 94.4254713,62.4152358 C92.5072787,64.1069092 91.4072215,66.5660827 91.4072215,69.1625931 L91.4072215,77.0641754 C91.4072215,77.5810481 90.9939971,78 90.4841906,78 L90.4841906,78 Z"
                                fill="#a62005" class="primary-fill-color"></path>
                            <path
                                d="M85.4811878,50 C85.2946297,50 85.1075761,49.958389 84.9472798,49.8755351 L78.4965315,46.5416801 L72.0507381,49.875351 C71.7294023,50.0414269 71.3032669,50.0414269 70.9821789,49.875351 L64,46.2655006 L65.0680638,45.1245109 L71.5163346,48.4579977 L77.9621279,45.1245109 C78.2829683,44.958435 78.7093514,44.9586191 79.0301917,45.1243268 L85.4811878,48.4583659 L91.932184,45.1243268 L93,46.2656847 L86.0150959,49.8755351 C85.8547996,49.958389 85.6679937,50 85.4811878,50"
                                fill="#a62005" class="primary-fill-color"></path>
                            <path
                                d="M77,76 L75.5439468,76 C75.5439468,63.0117688 74.7549781,56.3993929 74.0931006,53.1393435 C73.549636,50.4616105 73.0044357,49.6432592 73,49.6408308 L73.6501133,48 C74.2095849,48.3518668 77,51.3535406 77,76"
                                fill="#a62005" class="primary-fill-color"></path>
                            <path
                                d="M82.4291258,76 L81,76 C81,51.3535406 83.7391736,48.3518668 84.2883714,48 L84.9265465,49.6408308 C84.9761465,49.6090196 85,49.5842505 85,49.5842505 C84.8951205,49.6942544 82.4291258,52.5480421 82.4291258,76"
                                fill="#a62005" class="primary-fill-color"></path>
                            <path
                                d="M93.3443397,41 C91.1600781,35.6022047 86.6816095,31.9166075 81.3643882,31.1406646 C74.8562534,30.1893553 68.5303205,33.9024194 65.6251733,40.3748615 L64,39.4924838 C67.2491463,32.2533425 74.3214106,28.1047678 81.6025229,29.1638323 C87.5491687,30.03142 92.5576791,34.1530559 95,40.189195 L93.3443397,41"
                                fill="#a62005" class="primary-fill-color"></path>
                        </g>
                    </svg>