<svg xmlns="http://www.w3.org/2000/svg" width="246px" height="180px" viewBox="0 0 166 151">
                        <g stroke="none" stroke-width="1" fill="none" fill-rule="evenodd">
                            <path
                                d="M40.0846012,22.1088769 L39.1295401,20.8605081 C39.7680063,20.391756 40.4249406,19.9242961 41.0845132,19.4710485 L42,20.7491342 C41.3536189,21.1930791 40.709876,21.6504612 40.0846012,22.1088769 Z M36.3936329,25.0043379 L35.3594231,23.8169534 C35.9741448,23.3037552 36.5994196,22.7965004 37.2194178,22.3096598 L38.2166916,23.5275365 C37.6072465,24.0045576 36.9951631,24.501476 36.3936329,25.0043379 Z M32.8978982,28.1240971 L31.7871779,27.0044154 C32.3596869,26.4615003 32.950664,25.9157428 33.5469176,25.383164 L34.6207018,26.5369555 C34.0376396,27.0586811 33.4572157,27.5922935 32.8978982,28.1240971 Z M29.6132266,31.4547171 L28.4312725,30.4060977 C28.9694838,29.8267471 29.5235248,29.245846 30.0828423,28.6791574 L31.2278603,29.7636955 C30.6817342,30.3184974 30.1382464,30.8872533 29.6132266,31.4547171 Z M26.5501715,34.9840529 L25.3048984,34.0116638 C25.8035353,33.3992369 26.3180019,32.7847428 26.8403834,32.1847196 L28.053997,33.1953531 C27.544807,33.7827143 27.0382552,34.384288 26.5501715,34.9840529 Z M23.7245625,38.6971167 L22.4186087,37.8045757 C22.875033,37.1619151 23.3499252,36.5158952 23.8300941,35.8856382 L25.1070266,36.8184909 C24.637411,37.4353107 24.1730718,38.0676349 23.7245625,38.6971167 Z M21.1469528,42.5789209 L19.7855949,41.770104 C20.1998065,41.1010859 20.6298479,40.4268995 21.0704424,39.7666672 L22.4054173,40.617863 C21.975376,41.2641413 21.5532495,41.9238568 21.1469528,42.5789209 Z M18.8305338,46.6137026 L17.4164102,45.8919692 C17.7857708,45.1989191 18.1735995,44.4994088 18.5667048,43.8128189 L19.9570838,44.5777064 C19.5692551,45.2500839 19.1919796,45.9346065 18.8305338,46.6137026 Z M16.7805822,50.7854405 L15.3242459,50.1544083 C15.6487556,49.4362926 15.9890951,48.713784 16.3347111,48.0072967 L17.7725794,48.6832919 C17.4322399,49.3753084 17.0998153,50.0825709 16.7805822,50.7854405 Z M15.0129276,55.0768213 L13.517017,54.5395912 C13.7913992,53.8041622 14.0842494,53.0614978 14.3823762,52.3330457 L15.8624571,52.9175645 C15.5669686,53.6305121 15.2820332,54.3571552 15.0129276,55.0768213 Z M13.5302084,59.4710485 L12,59.0291709 C12.226893,58.2774622 12.4696157,57.5182596 12.7202533,56.7724943 L14.234632,57.2624358 C13.989271,57.9924382 13.7518248,58.7353611 13.5302084,59.4710485 L13.5302084,59.4710485 Z"
                                fill="#E1E1E1"></path>
                            <path
                                d="M85.2439024,7.09347595 C84.5685108,7.07447859 83.88023,7.06471606 83.1971049,7.06471606 L82.9341662,7.06497991 L82.9264327,5.47131237 L83.1971049,5.47104851 C83.8931192,5.47104851 84.5968669,5.4810749 85.2877256,5.50059996 L85.2439024,7.09347595 Z M78.3146936,7.23120682 L78.2090026,5.64123321 C78.9849296,5.5876712 79.7789014,5.54651025 80.5677176,5.51801421 L80.6218521,7.1108902 C79.8485029,7.13859469 79.0725758,7.17896408 78.3146936,7.23120682 Z M89.8582193,7.37527015 C89.1003371,7.3042939 88.3244101,7.24439944 87.5536387,7.19690603 L87.6464406,5.60640471 C88.4352568,5.65468967 89.2266508,5.71563954 90,5.78846276 L89.8582193,7.37527015 Z M73.7158437,7.69690603 L73.5121951,6.1164311 C74.2881221,6.01247332 75.0769383,5.91959733 75.858021,5.84070551 L76.0126909,7.42645748 C75.2444973,7.50403004 74.473726,7.59505907 73.7158437,7.69690603 Z M69.1556613,8.46286909 L68.8540551,6.89980841 C69.6222487,6.74492714 70.4033314,6.60033611 71.1792584,6.47025696 L71.429308,8.04281632 C70.6714257,8.17025696 69.90581,8.31168176 69.1556613,8.46286909 Z M64.654769,9.5285683 L64.2552052,7.98793506 C65.0182431,7.78081105 65.7890145,7.58529653 66.5468967,7.40614086 L66.8974817,8.95864746 C66.1550664,9.1341092 65.4023399,9.32592978 64.654769,9.5285683 Z M60.2286337,10.8889905 L59.7336903,9.37843638 C60.4786833,9.1224997 61.2339877,8.87606171 61.9841364,8.6462464 L62.4301011,10.1721039 C61.6979972,10.3979614 60.9581598,10.6385947 60.2286337,10.8889905 Z M55.9004561,12.5391224 L55.3101329,11.0636607 C56.0396589,10.7589113 56.7794963,10.4628691 57.5090224,10.1847688 L58.0529447,11.6779087 C57.3363078,11.9507319 56.6119373,12.2401778 55.9004561,12.5391224 Z M51.6831251,14.4710485 L51,13.0378031 C51.7089034,12.6855604 52.4281182,12.3417609 53.1395994,12.0156395 L53.7763236,13.4699931 C53.0803093,13.7895182 52.3765616,14.1259298 51.6831251,14.4710485 L51.6831251,14.4710485 Z"
                                fill="#E1E1E1"></path>
                            <path
                                d="M105.22225,10.6868694 C104.488415,10.4454877 103.739021,10.213309 103,9.99716983 L103.435634,8.47104851 C104.190213,8.6921836 104.952572,8.9293582 105.704559,9.17652465 L105.22225,10.6868694 Z M109.594145,12.2839853 C108.875868,11.9952739 108.144626,11.7144507 107.421163,11.4504559 L107.952739,9.95615072 C108.691761,10.2259303 109.438561,10.513064 110.172396,10.8083491 L109.594145,12.2839853 Z M113.854538,14.1642909 C113.159598,13.8295644 112.449101,13.5016745 111.738603,13.1895611 L112.36353,11.7331197 C113.086993,12.0523325 113.815642,12.3873219 114.52614,12.7288849 L113.854538,14.1642909 Z M117.987871,16.3185831 C117.318862,15.940734 116.629109,15.5670919 115.939356,15.2073859 L116.65504,13.7951189 C117.360351,14.1624503 118.065663,14.5442435 118.75023,14.929718 L117.987871,16.3185831 Z M121.978586,18.737133 C121.330322,18.3153724 120.666499,17.8978189 120.002677,17.495779 L120.806524,16.1324194 C121.483312,16.5433994 122.162693,16.9704188 122.823923,17.4011195 L121.978586,18.737133 Z M125.805939,21.4102118 C125.188791,20.9492727 124.550899,20.4891224 123.913007,20.0423822 L124.799833,18.7350295 C125.453283,19.1909727 126.104141,19.6608519 126.734253,20.1315199 L125.805939,21.4102118 Z M129.456964,24.3257241 C128.86834,23.8242917 128.261564,23.3241741 127.654789,22.8387813 L128.621999,21.5911166 C129.244333,22.0865013 129.864074,22.5976625 130.465663,23.1096126 L129.456964,24.3257241 Z M132.918695,27.4710485 C132.363781,26.9322783 131.788122,26.3940339 131.212463,25.8699884 L132.257465,24.6875337 C132.84609,25.2226227 133.43212,25.7726995 134,26.3225134 L132.918695,27.4710485 L132.918695,27.4710485 Z"
                                fill="#E1E1E1"></path>
                            <path
                                d="M143.724664,40.445663 C143.485652,40.0791333 143.244097,39.7157009 143,39.3540755 L144.266255,38.4710485 C144.515438,38.8401595 144.762078,39.2121097 145.006175,39.5861249 L143.724664,40.445663 Z M146.114784,44.3855997 C145.738467,43.7183607 145.346894,43.0490567 144.950236,42.3962724 L146.257174,41.5788078 C146.664003,42.2455306 147.063204,42.9292893 147.447149,43.6107249 L146.114784,44.3855997 Z M148.250636,48.4724064 C147.917544,47.7806461 147.569197,47.0870789 147.215765,46.41158 L148.571013,45.6808436 C148.932074,46.3713134 149.288049,47.0795934 149.628769,47.7863247 L148.250636,48.4724064 Z M150.122049,52.6908541 C149.834726,51.9799929 149.532147,51.2657761 149.219397,50.5660141 L150.620414,49.9258776 C150.938249,50.6403525 151.248456,51.3705727 151.543407,52.0964048 L150.122049,52.6908541 Z M151.723938,57.0228744 C151.482383,56.296526 151.223029,55.5634665 150.958591,54.8440874 L152.395205,54.2966158 C152.667272,55.0317403 152.931711,55.7808032 153.178351,56.5228969 L151.723938,57.0228744 Z M153.046131,61.4509152 C152.850345,60.7085634 152.639303,59.9600167 152.420632,59.2261828 L153.890301,58.7739574 C154.114057,59.5237947 154.330185,60.288861 154.528514,61.0474743 L153.046131,61.4509152 Z M154.083545,65.9571662 C153.93607,65.2081033 153.773338,64.4471668 153.600436,63.6957809 L155.095532,63.3411246 C155.27352,64.1087721 155.438794,64.8859701 155.588812,65.6518108 L154.083545,65.9571662 Z M154.833636,70.5222684 C154.731929,69.7610739 154.620051,68.9911033 154.495459,68.2337805 L156.008355,67.9769516 C156.135489,68.7510521 156.252452,69.5375424 156.356702,70.3152565 L154.833636,70.5222684 Z M155.293861,75.1278954 C155.240465,74.362571 155.176898,73.5864055 155.100618,72.8218554 L156.628769,72.6644025 C156.705049,73.4457304 156.771159,74.2384155 156.824555,75.0205177 L155.293861,75.1278954 Z M155.464221,79.7546882 C155.459135,78.985492 155.443879,78.2067453 155.41591,77.4398722 L156.949146,77.381279 C156.979659,78.1644137 156.994915,78.9599382 157,79.745654 L155.464221,79.7546882 Z M156.880494,84.4710485 L155.347258,84.3819973 C155.390483,83.6140916 155.423538,82.8363774 155.441337,82.0702786 L156.977116,82.1095128 C156.956774,82.8923894 156.926262,83.6866232 156.880494,84.4710485 L156.880494,84.4710485 Z"
                                fill="#E1E1E1"></path>
                            <path
                                d="M45,13.9689529 C43.0679563,13.9689529 41.4980159,15.5400166 41.4980159,17.4709245 C41.4980159,19.4020804 43.0679563,20.9731441 45,20.9731441 C46.9320437,20.9731441 48.5019841,19.4020804 48.5019841,17.4709245 C48.5019841,15.5400166 46.9320437,13.9689529 45,13.9689529 Z M45,22.4710485 C42.2420635,22.4710485 40,20.2279118 40,17.4709245 C40,14.7139372 42.2420635,12.4710485 45,12.4710485 C47.7579365,12.4710485 50,14.7139372 50,17.4709245 C50,20.2279118 47.7579365,22.4710485 45,22.4710485 L45,22.4710485 Z"
                                fill="#E1E1E1"></path>
                            <path
                                d="M96,2.06522682 C93.0199849,2.06522682 90.5942685,4.49027819 90.5942685,7.47065261 C90.5942685,10.4515549 93.0199849,12.8768702 96,12.8768702 C98.9826546,12.8768702 101.405732,10.4515549 101.405732,7.47065261 C101.405732,4.49027819 98.9826546,2.06522682 96,2.06522682 Z M96,14.4710485 C92.1410256,14.4710485 89,11.3309923 89,7.47065261 C89,3.61110469 92.1410256,0.471048513 96,0.471048513 C99.8616139,0.471048513 103,3.61110469 103,7.47065261 C103,11.3309923 99.8616139,14.4710485 96,14.4710485 L96,14.4710485 Z"
                                fill="#E1E1E1"></path>
                            <path
                                d="M140.001282,25.0196176 C136.442878,25.0196176 133.54847,27.9136983 133.54847,31.4710485 C133.54847,35.0283988 136.442878,37.9224795 140.001282,37.9224795 C143.557122,37.9224795 146.45153,35.0283988 146.45153,31.4710485 C146.45153,27.9136983 143.557122,25.0196176 140.001282,25.0196176 Z M140.001282,39.4710485 C135.589168,39.4710485 132,35.8824192 132,31.4710485 C132,27.0596778 135.589168,23.4710485 140.001282,23.4710485 C144.410832,23.4710485 148,27.0596778 148,31.4710485 C148,35.8824192 144.410832,39.4710485 140.001282,39.4710485 L140.001282,39.4710485 Z"
                                fill="#E1E1E1"></path>
                            <path
                                d="M9,142.471049 L7.40913082,142.471049 C7.40913082,140.982203 7.11150132,140.286355 6.76646181,139.480663 C6.40561896,138.640775 6,137.688194 6,135.883549 C6,134.078903 6.40561896,133.126581 6.76646181,132.286434 C7.11150132,131.480742 7.40913082,130.785153 7.40913082,129.296049 C7.40913082,127.808498 7.11150132,127.113428 6.76646181,126.308254 C6.40561896,125.468625 6,124.516821 6,122.712953 C6,120.908825 6.40561896,119.957021 6.76646181,119.116615 C7.11150132,118.31196 7.40913082,117.616112 7.40913082,116.127784 C7.40913082,114.640234 7.11150132,113.945163 6.76646181,113.13999 C6.40561896,112.300361 6,111.348816 6,109.544948 C6,107.741597 6.40561896,106.790052 6.76646181,105.950941 C7.11150132,105.146545 7.40913082,104.450956 7.40913082,102.963924 C7.40913082,101.476633 7.11150132,100.781303 6.76646181,99.976907 C6.40561896,99.137537 6,98.185992 6,96.3826418 C6,94.5790326 6.40561896,93.6272285 6.76646181,92.7875995 C7.11150132,91.9826851 7.40913082,91.2873552 7.40913082,89.799805 C7.40913082,88.312773 7.11150132,87.6177022 6.76646181,86.8127878 C6.40561896,85.9731587 6,85.0216137 6,83.2180045 C6,81.4141362 6.40561896,80.4620731 6.76646181,79.622444 C7.11150132,78.8175297 7.40913082,78.1221997 7.40913082,76.6346496 C7.40913082,75.1470994 7.11150132,74.4522876 6.76646181,73.6473733 C6.40561896,72.8077442 6,71.8559401 6,70.05259 C6,68.2489808 6.40561896,67.2976948 6.76646181,66.4580658 C7.11150132,65.6534105 7.40913082,64.9583396 7.40913082,63.4710485 L9,63.4710485 C9,65.2746577 8.59174715,66.2256846 8.23353819,67.0653137 C7.88849868,67.869969 7.59086918,68.5652989 7.59086918,70.05259 C7.59086918,71.5401401 7.88849868,72.2349519 8.23353819,73.0398663 C8.59174715,73.8794953 9,74.8312994 9,76.6346496 C9,78.4382588 8.59174715,79.3900629 8.23353819,80.2296919 C7.88849868,81.0348654 7.59086918,81.7299362 7.59086918,83.2180045 C7.59086918,84.7055546 7.88849868,85.4003665 8.23353819,86.2052808 C8.59174715,87.0451689 9,87.9961958 9,89.799805 C9,91.6036733 8.59174715,92.5554774 8.23353819,93.3951065 C7.88849868,94.2000208 7.59086918,94.8950917 7.59086918,96.3826418 C7.59086918,97.8699329 7.88849868,98.5650038 8.23353819,99.3694 C8.59174715,100.20877 9,101.160315 9,102.963924 C9,104.767533 8.59174715,105.719078 8.23353819,106.558189 C7.88849868,107.362845 7.59086918,108.057657 7.59086918,109.544948 C7.59086918,111.032498 7.88849868,111.727828 8.23353819,112.532483 C8.59174715,113.372371 9,114.323916 9,116.127784 C9,117.932171 8.59174715,118.884234 8.23353819,119.724122 C7.88849868,120.529295 7.59086918,121.224625 7.59086918,122.712953 C7.59086918,124.200503 7.88849868,124.895833 8.23353819,125.700747 C8.59174715,126.540635 9,127.491921 9,129.296049 C9,131.100694 8.59174715,132.053016 8.23353819,132.893163 C7.88849868,133.698855 7.59086918,134.394444 7.59086918,135.883549 C7.59086918,137.372653 7.88849868,138.068501 8.23353819,138.873934 C8.59174715,139.714081 9,140.666403 9,142.471049"
                                fill="#E1E1E1"></path>
                            <path
                                d="M60.2217937,142.471049 L0.780791727,142.471049 C0.349029414,142.471049 0,142.117645 0,141.681963 L0,62.259873 C0,61.8241911 0.349029414,61.4710485 0.780791727,61.4710485 L42.9151055,61.4710485 L42.9151055,63.0486975 L1.56158345,63.0486975 L1.56158345,140.8934 L59.4384165,140.8934 L59.4384165,119.439463 L61,119.439463 L61,141.681963 C61,142.117645 60.6509706,142.471049 60.2217937,142.471049"
                                fill="#E1E1E1"></path>
                            <polygon fill="#E1E1E1" points="16 91.4710485 34 91.4710485 34 89.4710485 16 89.4710485">
                            </polygon>
                            <polygon fill="#E1E1E1" points="16 103.471049 25 103.471049 25 101.471049 16 101.471049">
                            </polygon>
                            <polygon fill="#E1E1E1" points="31 124.471049 40 124.471049 40 122.471049 31 122.471049">
                            </polygon>
                            <polygon fill="#E1E1E1" points="31 131.471049 40 131.471049 40 129.471049 31 129.471049">
                            </polygon>
                            <path
                                d="M26.2386555,135.471049 C26.1176471,135.471049 25.9966387,135.440133 25.8831933,135.377764 L22.5428571,133.503748 L19.1067227,135.381259 C18.8722689,135.510835 18.589916,135.499007 18.3630252,135.351957 C18.1361345,135.204638 18,134.941722 18,134.658912 L18,124.471049 L19.5226891,124.471049 L19.5226891,133.330621 L22.197479,131.867109 C22.4193277,131.745598 22.6815126,131.747211 22.9008403,131.870604 L25.4773109,133.315029 L25.4773109,125.2063 L27,125.2063 L27,134.658912 C27,134.943335 26.8613445,135.206788 26.6319328,135.353838 C26.5109244,135.43153 26.3747899,135.471049 26.2386555,135.471049"
                                fill="#E1E1E1"></path>
                            <path
                                d="M21.9987188,117.018807 C19.5438821,117.018807 17.5477258,119.016288 17.5477258,121.471177 C17.5477258,123.926322 19.5438821,125.92329 21.9987188,125.92329 C24.4535554,125.92329 26.4522742,123.926322 26.4522742,121.471177 C26.4522742,119.016288 24.4535554,117.018807 21.9987188,117.018807 Z M21.9987188,127.471049 C18.690583,127.471049 16,124.779383 16,121.471177 C16,118.162714 18.690583,115.471049 21.9987188,115.471049 C25.3068546,115.471049 28,118.162714 28,121.471177 C28,124.779383 25.3068546,127.471049 21.9987188,127.471049 L21.9987188,127.471049 Z">
                            </path>
                            <polygon fill="#E1E1E1" points="16 76.4710485 19 76.4710485 19 74.4710485 16 74.4710485">
                            </polygon>
                            <polygon fill="#E1E1E1" points="21 76.4710485 24 76.4710485 24 74.4710485 21 74.4710485">
                            </polygon>
                            <polygon fill="#E1E1E1" points="26 76.4710485 29 76.4710485 29 74.4710485 26 74.4710485">
                            </polygon>
                            <polygon fill="#E1E1E1"
                                points="160 136.471049 162 136.471049 162 92.4710485 160 92.4710485"></polygon>
                            <path
                                d="M165.217942,93.4710485 L110,93.4710485 L110,91.9451377 L164.435884,91.9451377 L164.435884,88.2887624 L126.853087,83.0049173 L126.718428,83.0243701 L113.690173,84.866579 L113.464879,83.3563315 L126.739145,81.4790065 C126.811653,81.4683959 126.889341,81.4683959 126.96185,81.4790065 L165.329295,86.8730001 C165.712555,86.9268112 166,87.2489199 166,87.6281239 L166,92.7080931 C166,93.1292344 165.650405,93.4710485 165.217942,93.4710485"
                                fill="#E1E1E1"></path>
                            <polygon fill="#E1E1E1"
                                points="126 63.4710485 128 63.4710485 128 49.4710485 126 49.4710485"></polygon>
                            <path
                                d="M137.229121,59.4710485 L127,59.4710485 L127,57.8187187 L135.89378,57.8187187 L134.532955,55.2975478 C134.392795,55.0360201 134.395343,54.7121197 134.5406,54.4538747 L135.860651,52.1233784 L127,52.1233784 L127,50.4710485 L137.229121,50.4710485 C137.509441,50.4710485 137.764277,50.632178 137.901888,50.8923379 C138.036951,51.1524978 138.031855,51.4717476 137.889146,51.7267098 L136.0951,54.8932194 L137.896791,58.2307069 C138.034403,58.4859426 138.034403,58.8013625 137.896791,59.0571454 C137.75918,59.3134753 137.506892,59.4710485 137.229121,59.4710485"
                                fill="#E1E1E1"></path>
                            <path
                                d="M115.774731,137.471049 L114,137.471049 L114,124.764874 C114,122.902913 114.476004,121.121601 115.416259,119.471049 L117,120.183052 C116.186092,121.610973 115.774731,123.152167 115.774731,124.764874 L115.774731,137.471049"
                                fill="#E1E1E1"></path>
                            <path
                                d="M138,137.471049 L136.372642,137.471049 L136.372642,124.979549 C136.372642,122.248267 135.238342,119.695551 133.179896,117.791775 C131.169948,115.932576 128.534922,114.945461 125.757098,115.022319 C125.525389,115.02565 125.320622,115.03436 125.115855,115.048195 L125,113.504627 C125.234404,113.488231 125.471503,113.479008 125.711295,113.47619 C128.936373,113.384216 131.986321,114.529146 134.314197,116.682199 C136.69057,118.87983 138,121.826572 138,124.979549 L138,137.471049"
                                fill="#E1E1E1"></path>
                            <path
                                d="M89.5626389,141.856384 L164.437361,141.856384 L164.437361,138.085713 L89.5626389,138.085713 L89.5626389,141.856384 Z M165.218681,143.471049 L88.7813194,143.471049 C88.3492653,143.471049 88,143.109353 88,142.663449 L88,137.278381 C88,136.832744 88.3492653,136.471049 88.7813194,136.471049 L165.218681,136.471049 C165.650735,136.471049 166,136.832744 166,137.278381 L166,142.663449 C166,143.109353 165.650735,143.471049 165.218681,143.471049 L165.218681,143.471049 Z"
                                fill="#E1E1E1"></path>
                            <path
                                d="M104.182126,137.471049 L97.8178741,137.471049 C97.365606,137.471049 97,137.126439 97,136.701284 L97,119.471049 L98.6357481,119.471049 L98.6357481,135.931519 L103.364252,135.931519 L103.364252,119.471049 L105,119.471049 L105,136.701284 C105,137.126439 104.634394,137.471049 104.182126,137.471049"
                                fill="#E1E1E1"></path>
                            <path
                                d="M149.635748,135.888974 L154.364252,135.888974 L154.364252,106.326177 C154.364252,105.072828 153.310765,104.053123 152.013541,104.053123 L151.983751,104.053123 C150.689235,104.053123 149.635748,105.072828 149.635748,106.326177 L149.635748,135.888974 Z M155.182126,137.471049 L148.817874,137.471049 C148.365606,137.471049 148,137.116915 148,136.680011 L148,106.326177 C148,104.20033 149.787407,102.471049 151.983751,102.471049 L152.013541,102.471049 C154.212593,102.471049 156,104.20033 156,106.326177 L156,136.680011 C156,137.116915 155.634394,137.471049 155.182126,137.471049 L155.182126,137.471049 Z"
                                fill="#E1E1E1"></path>
                            <path
                                d="M118,83.4710485 L116.360923,83.4710485 L116.360923,74.0051407 L114,74.0051407 L114,72.4710485 L117.180461,72.4710485 C117.63365,72.4710485 118,72.8144413 118,73.2380946 L118,83.4710485"
                                fill="#E1E1E1"></path>
                            <path
                                d="M130,82.4710485 L128.385027,82.4710485 L128.385027,73.9828627 L124.614973,73.9828627 L124.614973,81.6305399 L123,81.6305399 L123,73.2269556 C123,72.8094546 123.360963,72.4710485 123.807487,72.4710485 L129.192513,72.4710485 C129.639037,72.4710485 130,72.8094546 130,73.2269556 L130,82.4710485"
                                fill="#E1E1E1"></path>
                            <path
                                d="M143,84.4710485 L141.385643,84.4710485 L141.385643,74.0241803 L137.614357,74.0241803 L137.614357,83.607569 L136,83.607569 L136,73.2476144 C136,72.8187032 136.360825,72.4710485 136.807178,72.4710485 L142.190149,72.4710485 C142.636502,72.4710485 143,72.8187032 143,73.2476144 L143,84.4710485"
                                fill="#E1E1E1"></path>
                            <path
                                d="M129.069815,108.471049 L127,108.471049 L127,106.883455 L128.13963,106.883455 L128.13963,104.058642 L127,104.058642 L127,102.471049 L129.069815,102.471049 C129.581109,102.471049 130,102.82668 130,103.264845 L130,107.677252 C130,108.11568 129.581109,108.471049 129.069815,108.471049"
                                fill="#E1E1E1"></path>
                            <path
                                d="M135.587385,106.883455 L138.412615,106.883455 L138.412615,104.058642 L135.587385,104.058642 L135.587385,106.883455 Z M139.206307,108.471049 L134.793693,108.471049 C134.354796,108.471049 134,108.11568 134,107.677252 L134,103.264845 C134,102.82668 134.354796,102.471049 134.793693,102.471049 L139.206307,102.471049 C139.642576,102.471049 140,102.82668 140,103.264845 L140,107.677252 C140,108.11568 139.642576,108.471049 139.206307,108.471049 L139.206307,108.471049 Z"
                                fill="#E1E1E1"></path>
                            <path
                                d="M148,85.4710485 L146.447183,85.4710485 L146.447183,67.042308 L114,67.042308 L114,65.4710485 L147.223592,65.4710485 C147.65293,65.4710485 148,65.8227609 148,66.2564181 L148,85.4710485"
                                fill="#E1E1E1"></path>
                            <polygon fill="#E1E1E1"
                                points="148 67.4710485 151 67.4710485 151 65.4710485 148 65.4710485"></polygon>
                            <polygon fill="#84C8F4"
                                points="101 67.4710485 105 67.4710485 105 65.4710485 101 65.4710485"></polygon>
                            <path
                                d="M131,66.4710485 L129.34772,66.4710485 L129.34772,66.3736608 C129.34772,65.5361264 128.535258,64.8550998 127.536778,64.8550998 L125.465957,64.8550998 C124.467477,64.8550998 123.65228,65.5361264 123.65228,66.3736608 L123.65228,66.4710485 L122,66.4710485 L122,66.3736608 C122,64.7728359 123.553799,63.4710485 125.465957,63.4710485 L127.536778,63.4710485 C129.446201,63.4710485 131,64.7728359 131,66.3736608 L131,66.4710485"
                                fill="#E1E1E1"></path>
                            <polyline fill="#EEEEEE"
                                points="90 118.471049 90 140.471049 83 134.745109 83.3800157 118.753985 90 118.471049">
                            </polyline>
                            <polyline fill="#EEEEEE"
                                points="83 118.471049 83 147.471049 77.326932 143.804382 72 147.471049 72.4173994 118.471049 83 118.471049">
                            </polyline>
                            <polyline fill="#EEEEEE"
                                points="88.0410486 97.4710485 80.8845763 100.819603 77.0936801 98.8661023 78.1635846 103.065358 76 118.471049 86.3212762 118.471049 89 111.701075 88.0410486 97.4710485">
                            </polyline>
                            <polygon fill="#a62005" class="primary-fill-color"
                                points="42 94.4710485 68 94.4710485 68 92.4710485 42 92.4710485"></polygon>
                            <polyline fill="#a62005" class="primary-fill-color"
                                points="92.0180135 95.4710485 92 93.5482165 103.981986 93.4710485 104 95.3936259 92.0180135 95.4710485">
                            </polyline>
                            <path
                                d="M44.1126614,119.471049 C40.5887937,119.471049 36.9763081,119.226115 33.5254199,115.726766 C28.0780208,110.204801 29.4281418,100.583705 34.2734598,95.6707706 C38.4749944,91.4112562 45.3116105,91.4112562 49.513145,95.6707706 C52.9510012,99.1558519 52.9510012,104.826573 49.513145,108.311919 C48.1447793,109.700667 46.322898,110.465059 44.3863346,110.465059 C42.4497712,110.465059 40.6304963,109.700667 39.2595241,108.311919 C36.9215734,105.94238 36.9215734,102.085275 39.2595241,99.7149445 C40.2030449,98.7576701 41.5349209,98.2419098 42.9215316,98.3095505 C44.9910219,98.4054629 46.6174224,99.4784663 47.2690252,101.180317 C47.8684997,102.749264 47.4983893,104.532495 46.3255044,105.722812 C45.6478375,106.408731 44.6964975,106.770715 43.7086677,106.727911 C42.2412583,106.658421 41.0840118,105.885309 40.6174642,104.660114 C40.1821936,103.523169 40.4506539,102.231918 41.3029503,101.370028 L42.6921674,102.780442 C42.3950366,103.084561 42.2985994,103.539286 42.4523776,103.94011 C42.6348264,104.420201 43.114406,104.702653 43.7998921,104.735417 C44.2299499,104.757083 44.6521885,104.598022 44.9336809,104.313191 C45.5566131,103.681173 45.752094,102.734468 45.4341118,101.901377 C45.0666079,100.944895 44.1178742,100.361759 42.8329136,100.302045 C42.0014685,100.26796 41.2039067,100.563624 40.6513476,101.125359 C39.0796817,102.718086 39.0796817,105.309306 40.6513476,106.901504 C41.649603,107.912944 42.9762662,108.470187 44.3863346,108.470187 C45.7990093,108.470187 47.1256726,107.912944 48.1213216,106.901504 C49.4167078,105.590173 50.128258,103.846312 50.128258,101.991477 C50.128258,100.136378 49.4167078,98.392516 48.123928,97.0811848 C44.6886783,93.5998027 39.100533,93.5992742 35.6652833,97.0811848 C31.4767808,101.328281 30.2674061,109.601584 34.9172434,114.316352 C38.0710007,117.512639 41.415026,117.495465 44.9623514,117.473006 C45.238631,117.471156 45.5149105,117.469571 45.7911901,117.469571 L114.686453,117.469571 C120.944445,117.469571 126.03216,112.309854 126.03216,105.96801 C126.03216,99.6256376 120.944445,94.4659207 114.686453,94.4659207 L109.895869,94.5029117 L109.880231,92.5080395 L114.678633,92.4710485 C122.028712,92.4710485 128,98.5256836 128,105.96801 C128,113.410336 122.028712,119.464443 114.686453,119.464443 L45.7911901,119.464443 C45.5201234,119.464443 45.2464502,119.466293 44.9727771,119.467878 C44.6860718,119.469199 44.3993666,119.471049 44.1126614,119.471049"
                                fill="#a62005" class="primary-fill-color"></path>
                            <path
                                d="M76.6972323,118.471049 L75,117.736625 C77.2670174,111.732471 77.7689132,105.218193 76.4523459,98.898359 L78.2368644,98.4710485 C79.6358687,105.181069 79.1048774,112.097217 76.6972323,118.471049"
                                fill="#a62005" class="primary-fill-color"></path>
                            <path
                                d="M87.703547,119.471049 L86,118.723841 C88.4409394,112.172643 88.8303216,104.813004 87.0951373,98.0020912 L88.8643925,97.4710485 C90.7090905,104.70215 90.295372,112.515498 87.703547,119.471049"
                                fill="#a62005" class="primary-fill-color"></path>
                            <path
                                d="M43,119.471049 L43,117.517963 C45.6850242,117.517963 47.6452723,116.691091 48.9890741,114.990259 C52.4581975,110.604937 50.5031079,102.002203 50.4824737,101.916049 L52.3808193,101.471049 C52.4710939,101.861459 54.5603057,111.087451 50.5160042,116.204178 C48.8007871,118.372001 46.2730986,119.471049 43,119.471049"
                                fill="#a62005" class="primary-fill-color"></path>
                            <polyline fill="#a62005" class="primary-fill-color"
                                points="84 150.471049 77 145.115865 70 150.471049 70 118.471049 72.0245493 118.471049 72.0245493 146.438946 77 142.634926 81.9727656 146.438946 81.9727656 118.471049 84 118.471049 84 150.471049">
                            </polyline>
                            <polyline fill="#a62005" class="primary-fill-color"
                                points="92 145.471049 83 136.2398 84.3782621 134.826897 90.0513335 140.646056 90.0513335 118.471049 92 118.471049 92 145.471049">
                            </polyline>
                            <polyline fill="#a62005" class="primary-fill-color"
                                points="109.854041 86.4710485 109 84.7392771 113.178528 82.3548789 113.178528 62.4710485 115 62.4710485 115 83.5339683 109.854041 86.4710485">
                            </polyline>
                            <polyline fill="#a62005" class="primary-fill-color"
                                points="80.9643293 101.471049 46 83.4844103 46 62.4710485 47.9456124 62.4710485 47.9456124 82.2897191 80.9488675 99.2667592 102.087753 88.0055979 103 89.7327873 80.9643293 101.471049">
                            </polyline>
                            <polyline fill="#EEEEEE"
                                points="28 54.080914 79.5860285 27.4710485 130 54.080914 79.5860285 81.4710485 28 54.080914">
                            </polyline>
                            <path
                                d="M30.2448522,54.0913919 L80.1036138,80.262184 L128.830762,54.0913919 L80.1036138,28.6662526 L30.2448522,54.0913919 Z M80.1140434,82.4710485 L26,54.0663907 L80.1140434,26.4710485 L133,54.0663907 L80.1140434,82.4710485 L80.1140434,82.4710485 Z"
                                fill="#a62005" class="primary-fill-color"></path>
                            <path
                                d="M108,84.4710485 L106.002442,84.4710485 L106.002442,68.2246336 C106.002442,67.8619893 105.798718,67.5312286 105.470642,67.3614416 L82,55.2013209 L82.9339575,53.4710485 L106.4046,65.6314285 C107.388827,66.1410488 108,67.1343677 108,68.2246336 L108,84.4710485"
                                fill="#a62005" class="primary-fill-color"></path>
                            <path
                                d="M106.5,85.3675569 C105.065327,85.3675569 103.896985,86.5356052 103.896985,87.9709229 C103.896985,89.4064919 105.065327,90.5745401 106.5,90.5745401 C107.937186,90.5745401 109.103015,89.4064919 109.103015,87.9709229 C109.103015,86.5356052 107.937186,85.3675569 106.5,85.3675569 Z M106.5,92.4710485 C104.017588,92.4710485 102,90.452209 102,87.9709229 C102,85.489888 104.017588,83.4710485 106.5,83.4710485 C108.982412,83.4710485 111,85.489888 111,87.9709229 C111,90.452209 108.982412,92.4710485 106.5,92.4710485 L106.5,92.4710485 Z"
                                fill="#a62005" class="primary-fill-color"></path>
                            <polyline fill="#a62005" class="primary-fill-color"
                                points="112 108.471049 102 108.471049 103.684046 91.4710485 105.641814 91.6743901 104.179353 106.453665 109.823253 106.453665 108.358186 91.6743901 110.318561 91.4710485 112 108.471049">
                            </polyline>
                        </g>
                    </svg>